<svg width="29" height="29" viewBox="0 0 29 29" fill="none" xmlns="http://www.w3.org/2000/svg">
<path d="M15.0381 19.5977C14.7254 19.5977 14.4717 19.8514 14.4717 20.1641C14.4717 20.4767 14.7254 20.7305 15.0381 20.7305C15.3507 20.7305 15.6045 20.4767 15.6045 20.1641C15.6045 19.8514 15.3507 19.5977 15.0381 19.5977Z" fill="#FC39BA"/>
<path d="M13.1194 19.1014C11.8573 18.4002 11.0732 17.0711 11.0732 15.6328C11.0732 15.32 10.8197 15.0664 10.5068 15.0664C10.194 15.0664 9.94043 15.32 9.94043 15.6328C9.94043 17.4823 10.9478 19.1909 12.5693 20.0917C12.6565 20.14 12.7508 20.163 12.8439 20.163C13.0429 20.163 13.236 20.0579 13.3395 19.8716C13.4915 19.5981 13.3929 19.2533 13.1194 19.1014Z" fill="#FC39BA"/>
<path d="M24.1289 0H18.4648C18.1878 0 17.9515 0.200395 17.9061 0.473686L17.0449 5.66406H16.7447C16.6274 4.21893 16.0132 2.87655 14.9848 1.84065C13.817 0.663828 12.252 0.0106484 10.5768 0.000623047C10.5736 0.000509766 10.5704 0.000566406 10.5673 0.000509766C10.566 0.000509766 10.5647 0.000339844 10.5634 0.000339844C10.5627 0.000339844 10.562 0.000453125 10.5613 0.000453125C10.5527 0.000226563 10.5441 0 10.5352 0C8.8642 0 7.29305 0.664904 6.11141 1.87197C4.96359 3.04307 4.3223 4.58704 4.30531 6.21993C4.30525 6.22135 4.30531 6.22271 4.30525 6.22412C4.30525 6.22628 4.30491 6.22832 4.30491 6.23047C4.30491 6.23194 4.30514 6.23336 4.30514 6.23477C4.30491 6.25227 4.30469 6.26983 4.30469 6.28711C4.30469 7.95127 4.95277 9.51585 6.12959 10.6927C6.12959 10.6927 6.12965 10.6927 6.12965 10.6927C6.71265 11.2758 7.41137 11.7397 8.17001 12.0518C8.08296 12.3585 8.00791 12.6593 7.94504 12.9607C7.76996 13.7981 7.68177 14.6383 7.67543 15.5242C7.6748 15.5602 7.6748 15.5968 7.6748 15.6328C7.6748 17.6001 8.44081 19.4491 9.83151 20.8392C10.8121 21.8202 12.0212 22.4899 13.3389 22.7997V27.8672H9.37402C9.0612 27.8672 8.80762 28.1208 8.80762 28.4336C8.80762 28.7464 9.0612 29 9.37402 29H20.7021C21.015 29 21.2686 28.7464 21.2686 28.4336C21.2686 28.1208 21.015 27.8672 20.7021 27.8672H16.7373V22.7979C19.9809 22.0287 22.4014 19.1083 22.4014 15.6328V15.5898C22.3991 14.8238 22.3268 13.9641 22.1984 13.15C22.201 13.1283 22.2026 13.1064 22.2026 13.0839C22.2026 12.9966 22.1823 12.9143 22.1471 12.8405C22.0454 12.2676 21.9189 11.7405 21.7698 11.2729L20.1091 6.05856C20.0342 5.82362 19.816 5.66406 19.5694 5.66406H18.1932L18.945 1.13281H24.1289C24.4417 1.13281 24.6953 0.879232 24.6953 0.566406C24.6953 0.25358 24.4417 0 24.1289 0ZM15.6072 5.66406H11.9803L14.5589 3.06709C15.15 3.81514 15.5122 4.71006 15.6072 5.66406ZM11.1299 1.16736C12.1018 1.27651 13.0085 1.65357 13.762 2.26194L11.1299 4.91267V1.16736ZM10.928 6.79688H16.8569L15.9076 12.5176H9.21617C9.2672 12.3286 9.32288 12.1377 9.38524 11.9418C9.38631 11.9385 9.38728 11.9352 9.3883 11.9319L10.928 6.79688ZM9.99707 1.16198V4.94796L7.33473 2.28562C8.10125 1.65385 9.01923 1.2662 9.99707 1.16198ZM6.54307 3.09609L9.11104 5.66406H5.47624C5.58924 4.72575 5.95644 3.84176 6.54307 3.09609ZM5.46259 6.79688H9.2459C9.20937 6.81947 9.17459 6.84615 9.14287 6.87787L6.55275 9.46844C5.93628 8.69977 5.55945 7.77857 5.46259 6.79688ZM7.35371 10.2695L9.28249 8.34033L8.49689 10.9603C8.08873 10.7817 7.70329 10.5487 7.35371 10.2695ZM15.6045 27.8672H14.4717V22.9961H15.6045V27.8672ZM21.2686 15.5915V15.6328H21.2686C21.2686 19.0683 18.4736 21.8633 15.0381 21.8633C13.3735 21.8633 11.809 21.2152 10.6325 20.0382C9.4557 18.8619 8.80762 17.2974 8.80762 15.6328C8.80762 15.6031 8.80762 15.5729 8.80818 15.5378C8.81288 14.8853 8.86618 14.2639 8.9687 13.6504H16.3865C16.3872 13.6504 16.3879 13.6504 16.3886 13.6504C16.3892 13.6504 16.3898 13.6504 16.3904 13.6504H21.1271C21.2167 14.3088 21.2668 14.9835 21.2686 15.5915ZM19.1553 6.79688L20.6904 11.6169C20.7772 11.8889 20.8575 12.1937 20.9286 12.5176H17.056L18.0053 6.79688H19.1553Z" fill="#FC39BA"/>
</svg>
