<svg width="29" height="29" viewBox="0 0 29 29" fill="none" xmlns="http://www.w3.org/2000/svg">
<path d="M23.709 19.0705C23.0004 19.0705 22.3272 19.3481 21.8194 19.85C21.3115 20.3578 21.0281 21.0192 21.0281 21.7278C21.0281 22.4364 21.3056 23.0978 21.8194 23.6056C22.3331 24.1076 23.0004 24.3851 23.709 24.3851C25.1617 24.3851 26.3427 23.1923 26.3427 21.7278C26.3427 20.2634 25.1617 19.0705 23.709 19.0705ZM23.709 23.2041C22.8941 23.2041 22.2091 22.5309 22.2091 21.7278C22.2091 20.9247 22.8941 20.2515 23.709 20.2515C24.5121 20.2515 25.1617 20.9129 25.1617 21.7278C25.1617 22.5427 24.5121 23.2041 23.709 23.2041ZM24.394 10.2188C24.2877 10.1184 24.146 10.0652 23.9984 10.0652H20.969C20.6443 10.0652 20.3785 10.331 20.3785 10.6557V15.4979C20.3785 15.8227 20.6443 16.0884 20.969 16.0884H25.7758C26.1006 16.0884 26.3663 15.8227 26.3663 15.4979V12.256C26.3663 12.0907 26.2955 11.9312 26.1715 11.819L24.394 10.2188ZM25.1853 14.9074H21.5596V11.2403H23.7681L25.1853 12.5158V14.9074ZM9.28874 19.0705C8.58013 19.0705 7.90694 19.3481 7.3991 19.85C6.89126 20.3578 6.60782 21.0192 6.60782 21.7278C6.60782 22.4364 6.88536 23.0978 7.3991 23.6056C7.91285 24.1076 8.58013 24.3851 9.28874 24.3851C10.7414 24.3851 11.9224 23.1923 11.9224 21.7278C11.9224 20.2634 10.7414 19.0705 9.28874 19.0705ZM9.28874 23.2041C8.47383 23.2041 7.78884 22.5309 7.78884 21.7278C7.78884 20.9247 8.47383 20.2515 9.28874 20.2515C10.0918 20.2515 10.7414 20.9129 10.7414 21.7278C10.7414 22.5427 10.0918 23.2041 9.28874 23.2041ZM5.35003 19.7968H4.1631V18.2261C4.1631 17.9013 3.89737 17.6356 3.57259 17.6356C3.24781 17.6356 2.98208 17.9013 2.98208 18.2261V20.3874C2.98208 20.7121 3.24781 20.9779 3.57259 20.9779H5.35003C5.67481 20.9779 5.94054 20.7121 5.94054 20.3874C5.94054 20.0626 5.67481 19.7968 5.35003 19.7968ZM8.34392 16.5786C8.34392 16.2538 8.07819 15.988 7.75341 15.988H0.590511C0.26573 15.988 0 16.2538 0 16.5786C0 16.9033 0.26573 17.1691 0.590511 17.1691H7.75341C8.07819 17.1691 8.34392 16.9092 8.34392 16.5786ZM1.78925 14.4468L8.95215 14.4882C9.27693 14.4882 9.54266 14.2283 9.54856 13.9035C9.55447 13.5729 9.28874 13.3071 8.96396 13.3071L1.80106 13.2658C1.79515 13.2658 1.79515 13.2658 1.79515 13.2658C1.47037 13.2658 1.20464 13.5256 1.20464 13.8504C1.19874 14.1811 1.46447 14.4468 1.78925 14.4468ZM2.99389 11.7659H10.1568C10.4816 11.7659 10.7473 11.5002 10.7473 11.1754C10.7473 10.8506 10.4816 10.5849 10.1568 10.5849H2.99389C2.66911 10.5849 2.40338 10.8506 2.40338 11.1754C2.40338 11.5002 2.66911 11.7659 2.99389 11.7659ZM28.7815 10.9687L24.5534 7.46697C24.4472 7.3784 24.3172 7.33116 24.1755 7.33116H19.2034V5.20532C19.2034 4.88054 18.9377 4.61481 18.6129 4.61481H3.57259C3.24781 4.61481 2.98208 4.88054 2.98208 5.20532V9.52786C2.98208 9.85264 3.24781 10.1184 3.57259 10.1184C3.89737 10.1184 4.1631 9.85264 4.1631 9.52786V5.79583H18.0283V19.7968H13.1861C12.8613 19.7968 12.5956 20.0626 12.5956 20.3874C12.5956 20.7121 12.8613 20.9779 13.1861 20.9779H20.3963C20.721 20.9779 20.9868 20.7121 20.9868 20.3874C20.9868 20.0626 20.721 19.7968 20.3963 19.7968H19.2093V8.51218H23.9688L27.819 11.7009L27.7776 19.785H27.1635C26.8387 19.785 26.573 20.0508 26.573 20.3755C26.573 20.7003 26.8387 20.9661 27.1635 20.9661H28.3622C28.687 20.9661 28.9528 20.7062 28.9528 20.3815L29 11.4293C28.9941 11.2522 28.9173 11.0809 28.7815 10.9687Z" fill="#008179"/>
</svg>
