<svg width="27" height="27" viewBox="0 0 27 27" fill="none" xmlns="http://www.w3.org/2000/svg">
<path d="M23.5961 22.4482C25.7114 20.0643 27 16.9304 27 13.5C27 9.93088 25.6053 6.68343 23.3354 4.26693V4.26647C23.3336 4.26367 23.3308 4.26274 23.3294 4.26041C20.965 1.74709 17.6524 0.138259 13.9678 0.0121034L13.9674 0.0116379L13.7044 0.00465517C13.6364 0.00232759 13.5684 0 13.5 0C13.4316 0 13.3636 0.00232759 13.2956 0.00465517L13.0336 0.0116379L13.0331 0.0121034C9.34852 0.138259 6.0359 1.74709 3.67153 4.26041C3.66967 4.26274 3.66688 4.26367 3.66548 4.26647C3.66548 4.26647 3.66548 4.26693 3.66502 4.2674C1.39469 6.68343 0 9.93088 0 13.5C0 16.9304 1.28855 20.0643 3.40386 22.4482C3.40666 22.4524 3.40666 22.457 3.40991 22.4612C3.41829 22.4728 3.4304 22.4784 3.43924 22.4891C5.81617 25.1463 9.22655 26.858 13.0326 26.9884L13.0331 26.9888L13.2952 26.9958C13.3636 26.9977 13.4316 27 13.5 27C13.5684 27 13.6364 26.9977 13.7044 26.9953L13.9664 26.9884L13.9669 26.9879C17.7772 26.8571 21.1913 25.1421 23.5682 22.4794C23.5743 22.4714 23.584 22.4691 23.5896 22.4607C23.5933 22.457 23.5933 22.4524 23.5961 22.4482ZM0.942672 13.9655H6.53028C6.58288 15.9388 6.96833 17.8563 7.6545 19.6527C6.33057 20.1318 5.06483 20.7742 3.87869 21.5758C2.1344 19.501 1.04881 16.8564 0.942672 13.9655ZM4.13286 5.1314C5.29107 5.8846 6.52422 6.48791 7.81045 6.93853C7.02279 8.85041 6.58707 10.9117 6.53028 13.0345H0.942672C1.05393 10.0054 2.24007 7.24717 4.13286 5.1314ZM26.0573 13.0345H20.4697C20.4129 10.9117 19.9772 8.85041 19.1896 6.93853C20.4758 6.48791 21.7089 5.8846 22.8671 5.1314C24.7599 7.24717 25.9461 10.0054 26.0573 13.0345ZM13.0345 6.96553C11.6887 6.92736 10.3675 6.72672 9.09109 6.36828C10.0347 4.43266 11.367 2.68557 13.0345 1.23083V6.96553ZM13.0345 7.89657V13.0345H7.46131C7.51857 11.0104 7.94312 9.04733 8.70238 7.22716C10.1017 7.63262 11.5546 7.857 13.0345 7.89657ZM13.9655 7.89657C15.4454 7.857 16.8983 7.63309 18.2981 7.22716C19.0573 9.04733 19.4819 11.0104 19.5392 13.0345H13.9655V7.89657ZM13.9655 6.96553V1.23083C15.633 2.68557 16.9653 4.43266 17.9089 6.36828C16.6325 6.72672 15.3113 6.92736 13.9655 6.96553ZM18.8111 6.08524C17.9168 4.21153 16.6758 2.50448 15.1391 1.04136C17.8652 1.39795 20.318 2.63064 22.207 4.44802C21.1345 5.1286 19.9968 5.67605 18.8111 6.08524ZM8.18891 6.08524C7.00324 5.67605 5.86552 5.1286 4.79343 4.44802C6.68203 2.63064 9.13531 1.39795 11.8614 1.04136C10.3242 2.50448 9.08317 4.21153 8.18891 6.08524ZM7.46131 13.9655H13.0345V18.6384C11.495 18.6793 9.98674 18.9196 8.53712 19.3557C7.88214 17.6543 7.51391 15.8364 7.46131 13.9655ZM13.0345 19.5694V25.7692C11.2497 24.212 9.85034 22.3202 8.89883 20.2216C10.2335 19.8282 11.6198 19.6094 13.0345 19.5694ZM13.9655 25.7692V19.5694C15.3802 19.609 16.7665 19.8282 18.1012 20.2211C17.1497 22.3202 15.7503 24.212 13.9655 25.7692ZM13.9655 18.6384V13.9655H19.5387C19.4861 15.8364 19.1179 17.6543 18.4624 19.3562C17.0133 18.9196 15.505 18.6793 13.9655 18.6384ZM20.4697 13.9655H26.0573C25.9512 16.8564 24.8661 19.501 23.1213 21.5758C21.9352 20.7742 20.6694 20.1318 19.3455 19.6527C20.0321 17.8563 20.4171 15.9388 20.4697 13.9655ZM4.51133 22.2731C5.61274 21.5413 6.78538 20.9529 8.01062 20.513C8.91605 22.5427 10.2158 24.3922 11.8609 25.9586C8.99752 25.5839 6.43484 24.2432 4.51133 22.2731ZM15.1391 25.9586C16.7842 24.3926 18.0839 22.5431 18.9894 20.513C20.2146 20.9529 21.3868 21.5413 22.4887 22.2731C20.5652 24.2432 18.0025 25.5839 15.1391 25.9586Z" fill="#7AB5E8"/>
</svg>
