<svg width="29" height="29" viewBox="0 0 29 29" fill="none" xmlns="http://www.w3.org/2000/svg">
<g clip-path="url(#clip0)">
<path d="M28.1857 24.2543L25.0002 21.0687C24.126 20.1943 22.8093 20.0257 21.7639 20.5623L19.8901 18.6885C21.5966 16.7067 22.6297 14.1294 22.6297 11.3148C22.6297 5.07574 17.5539 0 11.3148 0C5.07596 0 0 5.07574 0 11.3148C0 17.5539 5.07574 22.6299 11.3148 22.6299C14.1292 22.6299 16.7067 21.5966 18.6885 19.8901L20.5623 21.7639C20.0257 22.8091 20.1943 24.1258 21.0687 25.0004L24.2543 28.1857C24.7793 28.7108 25.4774 28.9999 26.2197 28.9999C26.9622 28.9999 27.6605 28.7108 28.1853 28.1857C28.1855 28.1855 28.1855 28.1855 28.1857 28.1853C28.7108 27.6603 28.9999 26.9622 28.9999 26.2197C28.9999 25.4774 28.7108 24.7791 28.1857 24.2543ZM11.3148 20.9304C6.01274 20.9304 1.69922 16.6169 1.69922 11.3148C1.69922 6.01274 6.01274 1.69922 11.3148 1.69922C16.6171 1.69922 20.9307 6.01274 20.9307 11.3148C20.9307 16.6171 16.6169 20.9304 11.3148 20.9304ZM26.9841 26.9837C26.9841 26.9839 26.9841 26.9839 26.9839 26.9839C26.9839 26.9841 26.9839 26.9841 26.9837 26.9841C26.5617 27.4063 25.8783 27.4067 25.4557 26.9841L22.2701 23.7988C21.8489 23.3775 21.8489 22.692 22.2706 22.2701C22.6916 21.8493 23.377 21.8486 23.7988 22.2701L26.9841 25.4557C27.4063 25.8779 27.4067 26.5613 26.9841 26.9837Z" fill="#85C800"/>
<path d="M6.76494 7.73517H4.94492C4.47564 7.73517 4.09531 8.1155 4.09531 8.58478C4.09531 9.05405 4.47564 9.43438 4.94492 9.43438H5.91533V12.6799C5.91533 12.9642 5.68412 13.1954 5.39981 13.1954C5.11573 13.1954 4.88452 12.9642 4.88452 12.6799C4.88452 12.2107 4.50396 11.8303 4.03491 11.8303C3.56563 11.8303 3.1853 12.2107 3.1853 12.6799C3.1853 13.901 4.17872 14.8947 5.39981 14.8947C6.62112 14.8947 7.61455 13.901 7.61455 12.6799V8.58478C7.61455 8.1155 7.23421 7.73517 6.76494 7.73517Z" fill="#85C800"/>
<path d="M11.0866 7.73517C9.73781 7.73517 8.64526 8.82638 8.64526 10.1765V12.4534C8.64526 13.7999 9.73382 14.8947 11.0883 14.8947C12.4369 14.8947 13.5296 13.8034 13.5296 12.4534V10.1765C13.5296 8.8297 12.4411 7.73517 11.0866 7.73517ZM11.8304 12.4534C11.8304 12.8609 11.5018 13.1954 11.0866 13.1954C10.6764 13.1954 10.3445 12.8638 10.3445 12.4534V10.1765C10.3445 9.76892 10.673 9.43438 11.0883 9.43438C11.4983 9.43438 11.8304 9.76604 11.8304 10.1765V12.4534Z" fill="#85C800"/>
<path d="M19.4449 9.9499C19.4449 8.7266 18.455 7.73517 17.2302 7.73517H15.4102C14.9409 7.73517 14.5605 8.1155 14.5605 8.58478V14.0448C14.5605 14.5141 14.9409 14.8944 15.4102 14.8944H17.2302C18.4537 14.8944 19.4449 13.9046 19.4449 12.6797C19.4449 12.1784 19.2787 11.7029 18.9736 11.3148C19.2787 10.9267 19.4449 10.4513 19.4449 9.9499ZM17.7457 9.9499C17.7457 10.2347 17.5154 10.4652 17.2302 10.4652H16.2598V9.43438H17.2302C17.5143 9.43438 17.7457 9.66427 17.7457 9.9499ZM17.2302 13.1954H16.2598V12.1644H17.2302C17.5149 12.1644 17.7457 12.395 17.7457 12.6799C17.7457 12.9647 17.5154 13.1954 17.2302 13.1954Z" fill="#85C800"/>
</g>
<defs>
<clipPath id="clip0">
<rect width="29" height="29" fill="white"/>
</clipPath>
</defs>
</svg>
