<svg width="27" height="27" viewBox="0 0 27 27" fill="none" xmlns="http://www.w3.org/2000/svg">
<path d="M17.8201 12.9727C18.1113 12.9727 18.3474 12.7366 18.3474 12.4453C18.3474 12.1541 18.1113 11.918 17.8201 11.918C17.5288 11.918 17.2927 12.1541 17.2927 12.4453C17.2927 12.7366 17.5288 12.9727 17.8201 12.9727Z" fill="#E83030"/>
<path d="M17.9105 14.7049C17.6226 14.6621 17.3542 14.8612 17.3116 15.1493C17.1675 16.1225 16.3448 16.9296 15.111 17.3085C13.7923 17.7134 11.9618 17.5777 10.8452 16.3617C10.6482 16.1472 10.3146 16.133 10.1001 16.3299C9.88558 16.527 9.8714 16.8606 10.0684 17.075C10.7148 17.779 11.5928 18.2588 12.6074 18.4625C12.9656 18.5344 13.3373 18.5701 13.7114 18.5701C14.2893 18.5701 14.8728 18.4849 15.4206 18.3167C17.0528 17.8156 18.1497 16.6893 18.3549 15.3038C18.3975 15.0157 18.1986 14.7475 17.9105 14.7049Z" fill="#E83030"/>
<path d="M25.24 10.0412C24.2815 8.93004 22.9587 8.20958 21.3663 7.92023C22.8908 6.89138 24.2058 5.86749 25.1434 4.97406C26.573 3.61188 27.0524 2.65465 26.6521 1.96177C26.2067 1.19006 24.921 1.19538 22.6056 1.9787C20.6494 2.64052 18.2123 3.78997 15.7435 5.21538C15.317 5.46154 14.8946 5.71361 14.4812 5.96763C14.1747 5.10189 14.3769 4.11297 15.0532 3.25545C15.5599 2.61315 15.673 1.79735 15.3485 1.1263C15.0084 0.422982 14.2619 0.00189844 13.3503 0H13.3256C10.1084 0 6.96173 1.26937 4.46513 3.57428C1.96541 5.88204 0.435061 8.93705 0.15599 12.1765C-0.17977 16.0778 1.06729 19.7868 3.66736 22.6203C6.2215 25.4037 9.8425 27 13.6019 27C15.6258 27 17.5259 26.6297 19.2491 25.8993C20.8248 25.2314 22.224 24.2777 23.408 23.0647C24.5058 21.9399 25.3713 20.6451 25.9805 19.2162C26.5603 17.8565 26.877 16.4156 26.8966 15.0493C26.9252 13.0624 26.3523 11.3306 25.24 10.0412ZM14.5429 7.17124C15.101 6.81924 15.6823 6.4685 16.2708 6.12879C18.5534 4.81085 20.8265 3.72531 22.6713 3.07209C24.7021 2.35306 25.5336 2.39999 25.7274 2.49281C25.7106 2.61552 25.5582 3.16148 24.2256 4.38871C23.1128 5.4135 21.4878 6.61864 19.6499 7.78212C19.069 8.15005 18.4643 8.51571 17.8529 8.86881C17.0099 9.35534 16.1676 9.81028 15.3409 10.2268C15.1759 9.74542 14.9645 9.27824 14.7072 8.83253C14.4578 8.40059 14.1686 7.99506 13.8453 7.61985C14.0741 7.46988 14.3069 7.3199 14.5429 7.17124ZM14.3854 10.6946C12.8964 11.4008 11.53 11.9392 10.4389 12.2515C10.3821 11.9787 10.2822 11.715 10.1405 11.4694C10.0062 11.2365 9.8377 11.0284 9.64296 10.8489C10.4598 10.0606 11.6095 9.1472 12.9633 8.2128C13.2776 8.56406 13.5563 8.94829 13.7938 9.35977C14.0395 9.78534 14.2373 10.2329 14.3854 10.6946ZM25.8421 15.0341C25.7669 20.2816 21.0658 25.9453 13.6019 25.9453C10.1371 25.9453 6.79941 24.4735 4.44451 21.9072C2.04652 19.294 0.89675 15.8704 1.20683 12.267C1.73939 6.08449 7.17583 1.05469 13.3256 1.05469H13.3492C13.8537 1.05574 14.2364 1.24917 14.399 1.58546C14.5485 1.89459 14.4835 2.2747 14.2251 2.60228C13.2747 3.80726 13.0363 5.28926 13.5733 6.5388C13.2906 6.72094 13.0127 6.90388 12.7443 7.08534C12.743 7.08618 12.7417 7.08703 12.7405 7.08787C11.0636 8.21939 9.6476 9.3449 8.70545 10.2921C7.99089 10.0478 7.20578 10.119 6.53848 10.5042C5.44287 11.1371 4.00428 14.0862 3.72706 14.671C3.65281 14.8275 3.66024 15.0106 3.74683 15.1606C3.83347 15.3106 3.98825 15.4086 4.1609 15.4226C4.45236 15.4462 5.28003 15.5059 6.20125 15.5059C7.31911 15.5059 8.57461 15.4179 9.17526 15.071C9.82589 14.6954 10.2769 14.0679 10.4331 13.3465C11.7263 13.007 13.4159 12.343 15.2459 11.4514C16.2712 10.9523 17.3257 10.3908 18.3802 9.78223C18.9151 9.47331 19.4439 9.15485 19.9579 8.83364C19.961 8.8338 19.964 8.83427 19.9671 8.83438C24.3624 8.96041 25.8839 12.1196 25.8421 15.0341ZM9.4364 12.8867C9.40265 13.417 9.10797 13.8921 8.64791 14.1577C8.1492 14.4457 6.43597 14.4846 5.02928 14.4202C5.67659 13.1702 6.5667 11.706 7.06593 11.4176C7.53727 11.1455 8.10712 11.1336 8.59059 11.3858C8.85632 11.5242 9.07633 11.7353 9.22694 11.9964C9.38361 12.268 9.45601 12.5758 9.4364 12.8867Z" fill="#E83030"/>
<path d="M9.38281 3.26105C8.2197 3.26105 7.27344 4.20731 7.27344 5.37042C7.27344 6.53353 8.2197 7.4798 9.38281 7.4798C10.5459 7.4798 11.4922 6.53353 11.4922 5.37042C11.4922 4.20731 10.5459 3.26105 9.38281 3.26105ZM9.38281 6.42511C8.80126 6.42511 8.32812 5.95198 8.32812 5.37042C8.32812 4.78887 8.80126 4.31573 9.38281 4.31573C9.96437 4.31573 10.4375 4.78887 10.4375 5.37042C10.4375 5.95198 9.96437 6.42511 9.38281 6.42511Z" fill="#E83030"/>
<path d="M6.74609 17.4313C5.58298 17.4313 4.63672 18.3776 4.63672 19.5407C4.63672 20.7038 5.58298 21.6501 6.74609 21.6501C7.9092 21.6501 8.85547 20.7038 8.85547 19.5407C8.85547 18.3776 7.9092 17.4313 6.74609 17.4313ZM6.74609 20.5954C6.16454 20.5954 5.69141 20.1223 5.69141 19.5407C5.69141 18.9592 6.16454 18.486 6.74609 18.486C7.32765 18.486 7.80078 18.9592 7.80078 19.5407C7.80078 20.1223 7.32765 20.5954 6.74609 20.5954Z" fill="#E83030"/>
<path d="M12.0195 20.5954C10.8564 20.5954 9.91016 21.5417 9.91016 22.7048C9.91016 23.8679 10.8564 24.8141 12.0195 24.8141C13.1826 24.8141 14.1289 23.8679 14.1289 22.7048C14.1289 21.5417 13.1826 20.5954 12.0195 20.5954ZM12.0195 23.7595C11.438 23.7595 10.9648 23.2863 10.9648 22.7048C10.9648 22.1232 11.438 21.6501 12.0195 21.6501C12.6011 21.6501 13.0742 22.1232 13.0742 22.7048C13.0742 23.2863 12.6011 23.7595 12.0195 23.7595Z" fill="#E83030"/>
<path d="M18.3477 19.5407C17.1845 19.5407 16.2383 20.487 16.2383 21.6501C16.2383 22.8132 17.1845 23.7595 18.3477 23.7595C19.5108 23.7595 20.457 22.8132 20.457 21.6501C20.457 20.487 19.5108 19.5407 18.3477 19.5407ZM18.3477 22.7048C17.7661 22.7048 17.293 22.2316 17.293 21.6501C17.293 21.0685 17.7661 20.5954 18.3477 20.5954C18.9292 20.5954 19.4023 21.0685 19.4023 21.6501C19.4023 22.2316 18.9292 22.7048 18.3477 22.7048Z" fill="#E83030"/>
<path d="M22.5664 14.2673C21.4033 14.2673 20.457 15.2135 20.457 16.3766C20.457 17.5398 21.4033 18.486 22.5664 18.486C23.7295 18.486 24.6758 17.5398 24.6758 16.3766C24.6758 15.2135 23.7295 14.2673 22.5664 14.2673ZM22.5664 17.4313C21.9849 17.4313 21.5117 16.9582 21.5117 16.3766C21.5117 15.7951 21.9849 15.322 22.5664 15.322C23.148 15.322 23.6211 15.7951 23.6211 16.3766C23.6211 16.9582 23.148 17.4313 22.5664 17.4313Z" fill="#E83030"/>
</svg>
