<svg width="27" height="27" viewBox="0 0 27 27" fill="none" xmlns="http://www.w3.org/2000/svg">
<g clip-path="url(#clip0)">
<path d="M15.3066 17.0901C15.3066 19.5737 17.32 21.5871 19.8036 21.5871C22.2871 21.5871 24.3004 19.5737 24.3004 17.0901C24.3004 14.6067 22.2871 12.5933 19.8036 12.5933C17.3211 12.596 15.3094 14.6078 15.3066 17.0901ZM19.8036 13.4926C21.7905 13.4926 23.4012 15.1032 23.4012 17.0901C23.4012 19.077 21.7905 20.6876 19.8036 20.6876C17.8167 20.6876 16.2061 19.077 16.2061 17.0901C16.2083 15.1043 17.8176 13.4948 19.8036 13.4926Z" fill="#85C800"/>
<path d="M17.2339 26.084H22.3735V26.9833H17.2339V26.084Z" fill="#85C800"/>
<path d="M15.3066 24.2852H24.3006V25.1846H15.3066V24.2852Z" fill="#85C800"/>
<path d="M5.41333 24.2852H6.3128V25.1846H5.41333V24.2852Z" fill="#85C800"/>
<path d="M2.71533 25.1846H3.61462V26.0841H2.71533V25.1846Z" fill="#85C800"/>
<path d="M5.45832 21.7548C7.80641 17.6652 9.27971 13.1325 9.78477 8.44394L13.967 12.6013C14.0506 12.6846 14.1637 12.7316 14.2818 12.7321C14.3061 12.7323 14.3306 12.7303 14.3545 12.7263C14.4971 12.7031 14.6197 12.6127 14.6841 12.4836C15.5319 10.7915 15.1999 8.74655 13.8603 7.40968L13.4926 7.04177H16.6556C16.904 7.04195 17.1055 6.84076 17.1055 6.59239C17.1057 6.54377 17.0977 6.49552 17.0825 6.44962C16.4853 4.65358 14.8046 3.44244 12.9119 3.44425H12.3273L14.5731 1.18542C14.7484 1.00944 14.7476 0.724797 14.5717 0.549547C14.5376 0.515622 14.4984 0.487321 14.4554 0.465914C12.7626 -0.382759 10.7165 -0.0509456 9.37876 1.28937L8.94934 1.71879C8.80929 1.85975 8.67921 2.00996 8.55948 2.16852C8.44119 2.00996 8.31202 1.85975 8.17306 1.71879L7.74364 1.28937C6.40695 -0.0500386 4.36201 -0.381852 2.67029 0.465914C2.44805 0.576942 2.35789 0.847073 2.46892 1.06913C2.49032 1.11212 2.51863 1.15131 2.55255 1.18542L4.80086 3.44425H4.21053C2.3178 3.44244 0.636959 4.65358 0.0399133 6.44962C-0.038822 6.6851 0.0883519 6.93981 0.324014 7.01855C0.369912 7.03397 0.41817 7.04177 0.46679 7.04177H3.62673L3.25899 7.40968C1.9194 8.74655 1.58741 10.7915 2.43499 12.4836C2.49958 12.6127 2.62222 12.7031 2.76463 12.7263C2.78876 12.7303 2.81307 12.7323 2.83756 12.7321C2.95639 12.7321 3.07032 12.6851 3.1545 12.6013L7.04899 8.72986C6.56678 13.0391 4.94382 17.1417 2.34737 20.6144C1.74288 20.4556 1.13005 20.3306 0.511781 20.2403L0.230765 20.212L0.140782 21.1073L0.40293 21.1329C0.852665 21.1973 1.2995 21.2881 1.74397 21.391C1.65399 21.5039 1.564 21.6185 1.47094 21.7297L2.16069 22.3066C5.61652 18.1979 7.6767 13.097 8.04371 7.74059L8.56129 7.22627L8.9488 7.6116C8.47602 13.3399 6.50982 18.8443 3.24629 23.5756L3.98285 24.0911C4.33643 23.5864 4.67369 23.0626 5.0006 22.5289C7.10414 23.535 8.9615 24.9902 10.4419 26.7918L11.1374 26.222C10.2621 25.1578 9.25921 24.2052 8.1511 23.3859H26.9986V22.4864H6.81877C6.37793 22.2203 5.92293 21.9792 5.45832 21.7548ZM14.1167 11.4811L9.36534 6.75712C10.5807 6.39429 11.897 6.72356 12.7983 7.61595L13.2277 8.04555C14.1274 8.94357 14.4677 10.2594 14.1167 11.4811ZM15.9695 6.14248H12.2461C11.3789 5.72975 10.4005 5.61292 9.46058 5.81012C10.115 4.88997 11.1741 4.34354 12.3032 4.34372H12.9102C14.1814 4.34172 15.3532 5.03075 15.9695 6.14248ZM9.58376 2.35466L10.0134 1.92524C10.9121 1.02541 12.2285 0.684885 13.4507 1.03611L10.7849 3.71765C9.91975 4.03604 9.17702 4.61911 8.66198 5.38379C8.4528 4.28367 8.79786 3.1509 9.58521 2.35466H9.58376ZM7.1065 1.92524L7.53592 2.35466C7.7362 2.55911 7.91 2.78806 8.05314 3.03588C7.84941 3.50956 7.73312 4.0159 7.70953 4.53076C7.30588 4.17809 6.84091 3.90269 6.33802 3.71765L3.67172 1.03611C4.89357 0.685067 6.20957 1.02559 7.10777 1.92524H7.1065ZM4.20908 4.34372H4.81628C5.94615 4.34263 7.00672 4.88888 7.66182 5.80958C6.72244 5.6131 5.74442 5.72993 4.87778 6.14248H1.15291C1.76901 5.03129 2.93988 4.34245 4.21053 4.34372H4.20908ZM3.00573 11.4811C2.65469 10.2594 2.99521 8.94357 3.89486 8.04555L4.32428 7.61595C4.97121 6.97065 5.84855 6.60945 6.76253 6.61235C7.09979 6.61253 7.43523 6.66061 7.75906 6.75531L3.00573 11.4811Z" fill="#85C800"/>
</g>
<defs>
<clipPath id="clip0">
<rect width="27" height="27" fill="white"/>
</clipPath>
</defs>
</svg>
