<svg width="29" height="29" viewBox="0 0 29 29" fill="none" xmlns="http://www.w3.org/2000/svg">
<g clip-path="url(#clip0)">
<path d="M24.752 12.0543H20.5375C20.0683 12.0543 19.6879 12.4348 19.6879 12.9039C19.6879 13.0147 19.7098 13.1203 19.7483 13.2174C19.8731 13.5314 20.1791 13.7535 20.5375 13.7535H24.752C26.1573 13.7535 27.3008 14.8969 27.3008 16.3023V24.752C27.3008 26.1573 26.1573 27.3008 24.752 27.3008H15.1472C13.7418 27.3008 12.5983 26.1573 12.5983 24.752V15.433C12.5983 14.9122 13.022 14.4885 13.5429 14.4885H15.4571C16.915 14.4885 18.1009 13.3026 18.1009 11.8447V4.24805C18.1009 1.90565 16.1952 0 13.8528 0H4.24805C1.90565 0 0 1.90565 0 4.24805V13.2864C0 15.6288 1.90565 17.5345 4.24805 17.5345H10.8991V24.752C10.8991 27.0944 12.8048 29 15.1472 29H24.752C27.0944 29 29 27.0944 29 24.752V16.3023C29 13.9601 27.0944 12.0543 24.752 12.0543ZM10.8991 15.8353H4.24805C2.84265 15.8353 1.69922 14.6918 1.69922 13.2864V4.24805C1.69922 2.84265 2.84265 1.69922 4.24805 1.69922H13.8528C15.2582 1.69922 16.4017 2.84265 16.4017 4.24805V11.8447C16.4017 12.3656 15.978 12.7893 15.4571 12.7893H13.5429C12.085 12.7893 10.8991 13.9752 10.8991 15.433V15.8353Z" fill="#2D9BF3"/>
<path d="M16.0684 24.9097C18.7995 24.9097 21.0213 22.6879 21.0213 19.9569V19.7005H21.7957V24.0601C21.7957 24.5293 22.176 24.9097 22.6453 24.9097C23.1146 24.9097 23.4949 24.5293 23.4949 24.0601V19.7005H23.831C24.3003 19.7005 24.6806 19.3202 24.6806 18.8509C24.6806 18.3818 24.3003 18.0013 23.831 18.0013H23.4949V15.839C23.4949 15.3697 23.1146 14.9894 22.6453 14.9894C22.176 14.9894 21.7957 15.3697 21.7957 15.839V18.0013H17.7271C17.2578 18.0013 16.8775 18.3818 16.8775 18.8509C16.8775 19.3202 17.2578 19.7005 17.7271 19.7005H19.3221V19.9569C19.3221 21.7509 17.8625 23.2105 16.0684 23.2105C15.5991 23.2105 15.2188 23.591 15.2188 24.0601C15.2188 24.5293 15.5991 24.9097 16.0684 24.9097Z" fill="#2D9BF3"/>
<path d="M12.4169 10.685L9.83249 4.59698C9.6993 4.28324 9.39131 4.07947 9.05036 4.07947C8.70964 4.07947 8.40165 4.28324 8.26846 4.59698L5.68401 10.685C5.50059 11.1168 5.70215 11.6155 6.13404 11.799C6.24223 11.845 6.35485 11.8667 6.46547 11.8667C6.79624 11.8667 7.11064 11.6724 7.24804 11.3489L7.74962 10.1672H10.3513L10.8529 11.3489C11.0363 11.7808 11.535 11.9824 11.9669 11.799C12.3988 11.6155 12.6004 11.1168 12.4169 10.685ZM8.47113 8.46801L9.05036 7.1031L9.62982 8.46801H8.47113Z" fill="#2D9BF3"/>
</g>
<defs>
<clipPath id="clip0">
<rect width="29" height="29" fill="white"/>
</clipPath>
</defs>
</svg>
