<svg width="27" height="27" viewBox="0 0 27 27" fill="none" xmlns="http://www.w3.org/2000/svg">
<g clip-path="url(#clip0)">
<path d="M26.0694 2.458L24.447 0.835576C23.3889 -0.222487 21.6061 -0.284028 20.4726 0.698466L17.6212 3.17013C17.5847 3.20177 17.5534 3.239 17.5285 3.28039L14.7528 7.90393L12.9706 8.49799C12.82 8.54819 12.7062 8.6728 12.6697 8.82726C12.6333 8.98172 12.6794 9.14403 12.7916 9.25631L17.6487 14.1134C17.7356 14.2002 17.8525 14.2475 17.9725 14.2475C18.0076 14.2475 18.0429 14.2434 18.0777 14.2352C18.2322 14.1988 18.3568 14.0849 18.407 13.9343L19.0012 12.1515L23.6927 9.31864C23.734 9.29364 23.7711 9.26237 23.8027 9.22577L26.2158 6.42932C27.1928 5.29722 27.1271 3.51569 26.0694 2.458ZM25.5225 5.83095L23.157 8.57218L18.3834 11.4546C18.2903 11.5109 18.2202 11.5985 18.1857 11.7019L17.7725 12.9418L16.678 11.8473C16.6777 11.847 16.6776 11.8468 16.6774 11.8466L15.0583 10.2276C15.0581 10.2274 15.0579 10.2273 15.0577 10.2271L13.9631 9.13254L15.203 8.71926C15.3067 8.68467 15.3946 8.61421 15.4508 8.52056L18.2762 3.81438L21.0725 1.3905C21.8505 0.716027 23.0737 0.757582 23.7993 1.48326L25.4218 3.10569C26.1477 3.83152 26.1929 5.05411 25.5225 5.83095Z" fill="#4C68FF"/>
<path d="M24.7712 18.4002C23.4266 17.0557 21.4478 16.5884 19.6549 17.1697L9.92263 7.43742C10.5038 5.6445 10.0365 3.66559 8.69207 2.32108C7.27563 0.904736 5.15513 0.461662 3.2897 1.19277C3.14589 1.24914 3.04011 1.37423 3.00852 1.52547C2.97693 1.67666 3.02371 1.83365 3.13297 1.94292L6.04607 4.85597L4.10318 6.79881L1.19014 3.8857C1.08082 3.77649 0.924038 3.72982 0.77269 3.76125C0.621448 3.79284 0.496309 3.89857 0.439989 4.04243C-0.291015 5.90775 0.151901 8.02831 1.56829 9.4448C2.91281 10.7893 4.89167 11.2567 6.68458 10.6754L10.3237 14.3145L5.79184 18.8464L2.90949 20.458C2.82933 20.5028 2.76447 20.5707 2.72339 20.6529L1.42818 23.2433C1.34001 23.4196 1.37455 23.6325 1.51392 23.7719L3.13292 25.391C3.22083 25.4789 3.33806 25.5251 3.45687 25.5251C3.52643 25.5251 3.59651 25.5093 3.66158 25.4767L6.252 24.1815C6.33416 24.1405 6.40208 24.0756 6.44691 23.9954L8.05847 21.113L12.5904 16.5812L16.4169 20.4077C15.8356 22.2006 16.303 24.1795 17.6475 25.524C18.6106 26.4871 19.899 27.0001 21.2116 27.0001C21.8294 27 22.4527 26.8863 23.0498 26.6524C23.1936 26.596 23.2994 26.4709 23.331 26.3197C23.3626 26.1685 23.3158 26.0115 23.2065 25.9023L20.2934 22.9892L22.2363 21.0464L25.1493 23.9594C25.2586 24.0687 25.4155 24.1156 25.5668 24.0839C25.718 24.0523 25.8431 23.9465 25.8995 23.8027C26.6305 21.9373 26.1876 19.8167 24.7712 18.4002ZM7.36586 20.5103C7.33606 20.5401 7.31059 20.5738 7.29003 20.6106L5.71627 23.4254L3.5472 24.5099L2.39496 23.3577L3.47944 21.1885L6.29414 19.6148C6.33095 19.5943 6.3647 19.5688 6.39449 19.539L10.9713 14.9622L11.9427 15.9336L7.36586 20.5103ZM25.2523 22.767L22.5601 20.0748C22.3812 19.8961 22.0914 19.8961 21.9125 20.0748L19.3221 22.6653C19.2362 22.7512 19.188 22.8676 19.188 22.9891C19.188 23.1106 19.2362 23.227 19.3221 23.3129L22.0143 26.0052C20.6794 26.2704 19.2794 25.8608 18.2951 24.8764C17.1362 23.7175 16.7737 21.9822 17.3719 20.4558C17.4383 20.2864 17.398 20.0937 17.2694 19.9649L7.12734 9.82296C7.0398 9.73548 6.92268 9.68886 6.80339 9.68886C6.74728 9.68886 6.69065 9.6992 6.63644 9.72045C5.11009 10.3187 3.37487 9.95612 2.21587 8.79728C1.23148 7.81283 0.821733 6.41284 1.08715 5.07803L3.77934 7.77028C3.95821 7.9491 4.2481 7.94899 4.42697 7.77028L7.01739 5.17986C7.19621 5.00098 7.19621 4.7111 7.01739 4.53223L4.32519 1.83998C5.66011 1.5742 7.05995 1.98426 8.04439 2.96876C9.20333 4.1277 9.56578 5.86293 8.96761 7.38932C8.90122 7.55881 8.94145 7.7515 9.07013 7.88023L19.2121 18.0221C19.3408 18.1508 19.5336 18.191 19.703 18.1246C21.2294 17.5266 22.9645 17.8889 24.1235 19.0478C25.108 20.0322 25.5177 21.4323 25.2523 22.767Z" fill="#4C68FF"/>
</g>
<defs>
<clipPath id="clip0">
<rect width="27" height="27" fill="white"/>
</clipPath>
</defs>
</svg>
