<svg width="27" height="27" viewBox="0 0 27 27" fill="none" xmlns="http://www.w3.org/2000/svg">
<g clip-path="url(#clip0)">
<path d="M26.4622 9.93879H26.1018C25.7506 8.15716 23.9495 5.02025 23.1522 3.69161C23.526 3.43448 23.7718 3.0039 23.7718 2.5169C23.7718 1.73116 23.1325 1.09186 22.3467 1.09186C21.561 1.09186 20.9217 1.7311 20.9217 2.5169C20.9217 3.0039 21.1675 3.43448 21.5414 3.69161C20.7441 5.02025 18.943 8.15716 18.5918 9.93879H18.2314C17.9344 9.93879 17.6936 10.1796 17.6936 10.4766C17.6936 13.0424 19.781 15.1299 22.3468 15.1299C24.9126 15.1299 27.0001 13.0424 27.0001 10.4766C27.0001 10.1796 26.7592 9.93879 26.4622 9.93879ZM22.3468 2.16759C22.5394 2.16759 22.6961 2.32431 22.6961 2.5169C22.6961 2.70948 22.5394 2.86616 22.3468 2.86616C22.1542 2.86616 21.9975 2.70948 21.9975 2.5169C21.9975 2.32431 22.1541 2.16759 22.3468 2.16759ZM22.3459 4.44044C23.2561 5.9767 24.6616 8.53568 25.0073 9.93879H19.6879C20.0143 8.62507 21.2789 6.23372 22.3459 4.44044ZM22.3468 14.0542C20.5569 14.0542 19.0698 12.7329 18.8096 11.0145H25.884C25.6238 12.7329 24.1367 14.0542 22.3468 14.0542Z" fill="black"/>
<path d="M18.2873 22.8168H16.8654V21.4509C16.8654 21.1538 16.6246 20.913 16.3276 20.913H14.9616V5.88887C15.3134 5.54113 15.54 5.067 15.5663 4.54087L17.8405 4.05149C18.1309 3.989 18.3157 3.70292 18.2532 3.41251C18.1907 3.1221 17.9046 2.93753 17.6142 2.99987L15.3347 3.49045C14.9927 2.84119 14.3114 2.39722 13.5279 2.39722C12.443 2.39722 11.5535 3.24814 11.4909 4.31759L5.80405 5.54135C5.5446 5.1865 5.12552 4.95541 4.65328 4.95541C3.86754 4.95541 3.22824 5.59466 3.22824 6.38046C3.22824 6.86746 3.47398 7.29809 3.84787 7.55517C3.05053 8.88381 1.24949 12.0207 0.89833 13.8023H0.537943C0.240785 13.8023 0 14.0431 0 14.3402C0 16.906 2.08744 18.9934 4.65323 18.9934C7.21902 18.9934 9.30646 16.906 9.30646 14.3402C9.30646 14.0431 9.06567 13.8023 8.76862 13.8023H8.40823C8.05707 12.0207 6.25598 8.88381 5.45869 7.55517C5.779 7.3349 6.00502 6.98732 6.06329 6.58596L11.7133 5.37017C11.8127 5.56286 11.9415 5.73794 12.0943 5.88897V20.9132H10.7284C10.4314 20.9132 10.1906 21.154 10.1906 21.451V22.817H8.76867C8.47162 22.817 8.23083 23.0578 8.23083 23.3548V25.3704C8.23083 25.6674 8.47162 25.9082 8.76867 25.9082H18.2873C18.5843 25.9082 18.8252 25.6674 18.8252 25.3704V23.3546C18.8252 23.0576 18.5843 22.8168 18.2873 22.8168ZM4.65323 6.03104C4.84581 6.03104 5.00254 6.18776 5.00254 6.38035C5.00254 6.57294 4.84581 6.72961 4.65323 6.72961C4.46064 6.72961 4.30392 6.57294 4.30392 6.38035C4.30392 6.18776 4.46064 6.03104 4.65323 6.03104ZM4.65323 17.9176C2.86332 17.9176 1.37621 16.5964 1.11602 14.8779H8.19044C7.93025 16.5964 6.44314 17.9176 4.65323 17.9176ZM7.31378 13.8022H1.99436C2.32079 12.4885 3.58541 10.0972 4.65244 8.30389C5.56253 9.84009 6.96806 12.3991 7.31378 13.8022ZM13.528 3.47279C14.0603 3.47279 14.4932 3.90574 14.4932 4.43798C14.4932 4.97023 14.0602 5.40318 13.528 5.40318C12.9958 5.40318 12.5628 4.97023 12.5628 4.43798C12.5628 3.90574 12.9958 3.47279 13.528 3.47279ZM13.886 6.4469V20.9131H13.17V6.44685C13.2863 6.46757 13.4058 6.47896 13.5281 6.47896C13.6503 6.47896 13.7697 6.46752 13.886 6.4469ZM11.2662 21.9887H15.7897V22.8168H11.2662V21.9887ZM17.7495 24.8325H9.30651V23.8925H17.7495V24.8325Z" fill="black"/>
<path d="M20.3249 2.99993C20.2624 2.70952 19.9763 2.52479 19.6859 2.58728L19.2939 2.67161C19.0036 2.7341 18.8188 3.02018 18.8813 3.31059C18.9357 3.56287 19.1586 3.73536 19.4066 3.73536C19.4441 3.73536 19.4822 3.73146 19.5203 3.72323L19.9122 3.63891C20.2026 3.57642 20.3874 3.29034 20.3249 2.99993Z" fill="black"/>
</g>
<defs>
<clipPath id="clip0">
<rect width="27" height="27" fill="white"/>
</clipPath>
</defs>
</svg>
