<svg width="29" height="29" viewBox="0 0 29 29" fill="none" xmlns="http://www.w3.org/2000/svg">
<path d="M28.4379 5.82807C28.436 5.82807 28.4341 5.82807 28.4323 5.82807H26.5267V5.17601C26.5369 4.91792 26.37 4.68597 26.1219 4.61388C24.799 4.26719 23.4367 4.09336 22.069 4.09673C19.8205 4.09673 16.7569 4.60264 14.4916 6.90735C12.2431 4.58015 9.15701 4.09673 6.91413 4.09673C5.54648 4.09336 4.18417 4.26719 2.86121 4.61388C2.61318 4.68597 2.44622 4.91792 2.45648 5.17601V5.82245H0.562124C0.251691 5.82245 0 6.07414 0 6.38457V24.3388C0 24.6493 0.251691 24.9009 0.562124 24.9009C0.658669 24.9007 0.753528 24.8755 0.837565 24.8279C0.893778 24.7998 6.51502 21.7249 14.3623 23.7036H14.4466H14.4972C14.542 23.709 14.5873 23.709 14.6321 23.7036C22.5018 21.7081 28.1231 24.7773 28.1568 24.8279C28.3307 24.9283 28.545 24.9283 28.7189 24.8279C28.8918 24.7281 28.9988 24.5441 29 24.3444V6.3902C29 6.07976 28.7484 5.82807 28.4379 5.82807ZM1.12425 23.445V6.95232H2.46773V21.0504C2.46421 21.3608 2.71302 21.6153 3.02346 21.6188C3.05381 21.6192 3.08417 21.6171 3.11417 21.6125C4.27706 21.435 5.45113 21.341 6.62745 21.3315C8.25691 21.3032 9.87955 21.5483 11.428 22.0566C7.93122 21.6337 4.38436 22.1117 1.12425 23.445ZM6.62745 20.2128C5.60501 20.2152 4.58377 20.2808 3.56949 20.4096V5.62008C4.66395 5.37626 5.78159 5.25182 6.90289 5.24908C9.00523 5.24908 11.9058 5.73251 13.9182 8.00349L13.9351 22.006C12.7658 21.2415 10.4836 20.2128 6.62745 20.2128ZM15.0593 8.00349C17.0717 5.75499 19.9723 5.24908 22.0746 5.24908C23.1959 5.25239 24.3135 5.37676 25.408 5.62008V20.4096C24.3994 20.2797 23.3838 20.2121 22.3669 20.2072C18.5332 20.2072 16.2454 21.2359 15.0593 22.0004V8.00349ZM27.8701 23.445C24.6031 22.108 21.048 21.63 17.5439 22.0566C19.0997 21.5465 20.73 21.3013 22.3669 21.3315C23.5506 21.3381 24.7323 21.4301 25.9027 21.6069C26.2096 21.6535 26.4962 21.4424 26.5428 21.1355C26.5474 21.1055 26.5495 21.0751 26.5491 21.0448V6.95232H27.8926L27.8701 23.445Z" fill="#333333"/>
</svg>
