<svg width="27" height="27" viewBox="0 0 27 27" fill="none" xmlns="http://www.w3.org/2000/svg">
<path d="M22.7637 0H4.23635C3.5132 0 2.92505 0.5886 2.92505 1.3113V25.6887C2.92505 26.4114 3.5132 27 4.23635 27H22.7637C23.4869 27 24.075 26.4114 24.075 25.6887V1.3113C24.075 0.5886 23.4869 0 22.7637 0ZM23.175 25.6887C23.175 25.9155 22.9905 26.1 22.7637 26.1H4.23635C4.00955 26.1 3.82505 25.9155 3.82505 25.6887V1.3113C3.82505 1.0845 4.00955 0.9 4.23635 0.9H22.7637C22.9905 0.9 23.175 1.0845 23.175 1.3113V25.6887Z" fill="#85C800"/>
<path d="M5.17505 24.75H10.125V19.8H5.17505V24.75ZM6.07505 20.7H9.22505V23.85H6.07505V20.7Z" fill="#85C800"/>
<path d="M11.0251 24.75H15.9751V19.8H11.0251V24.75ZM11.9251 20.7H15.0751V23.85H11.9251V20.7Z" fill="#85C800"/>
<path d="M16.875 24.75H21.825V13.95H16.875V24.75ZM17.775 14.85H20.925V23.85H17.775V14.85Z" fill="#85C800"/>
<path d="M5.17505 18.9H10.125V13.95H5.17505V18.9ZM6.07505 14.85H9.22505V18H6.07505V14.85Z" fill="#85C800"/>
<path d="M11.0251 18.9H15.9751V13.95H11.0251V18.9ZM11.9251 14.85H15.0751V18H11.9251V14.85Z" fill="#85C800"/>
<path d="M5.17505 13.05H10.125V8.09998H5.17505V13.05ZM6.07505 8.99998H9.22505V12.15H6.07505V8.99998Z" fill="#85C800"/>
<path d="M11.0251 13.05H15.9751V8.09998H11.0251V13.05ZM11.9251 8.99998H15.0751V12.15H11.9251V8.99998Z" fill="#85C800"/>
<path d="M16.875 13.05H21.825V8.09998H16.875V13.05ZM17.775 8.99998H20.925V12.15H17.775V8.99998Z" fill="#85C800"/>
<path d="M5.17505 6.75H21.8251V2.25H5.17505V6.75ZM6.07505 3.15H20.9251V5.85H6.07505V3.15Z" fill="#85C800"/>
</svg>
