<svg width="29" height="29" viewBox="0 0 29 29" fill="none" xmlns="http://www.w3.org/2000/svg">
<path d="M27.8908 11.6186L27.2588 10.9494L25.0404 4.96965C24.6624 3.95961 23.6957 3.29038 22.6175 3.28418H6.77286C5.69466 3.28418 4.72799 3.95961 4.35 4.96965L2.16261 10.875L1.25171 11.7177C0.458547 12.3932 0 13.3846 0 14.4256V23.138C0.00619658 24.5632 1.16496 25.7158 2.59017 25.7158H4.22607C5.65128 25.7158 6.81004 24.5632 6.81624 23.138V21.8739H22.1838V23.138C22.19 24.5632 23.3487 25.7158 24.7739 25.7158H26.4098C27.835 25.7158 28.9938 24.5632 29 23.138V14.1964C28.9938 13.2235 28.5972 12.294 27.8908 11.6186ZM5.51496 5.39102C5.71325 4.86431 6.21517 4.5235 6.77286 4.5235H22.6237C23.1814 4.5235 23.6833 4.8705 23.8816 5.39102L25.815 10.5961H24.3712C24.0303 8.27243 21.8677 6.66751 19.544 7.01452C17.6912 7.28717 16.235 8.74337 15.9624 10.5961H3.58162L5.51496 5.39102ZM23.1071 10.5961H17.2141C17.5549 8.96644 19.1536 7.92542 20.7833 8.26623C21.9483 8.51409 22.8592 9.42499 23.1071 10.5961ZM5.57692 23.138C5.57073 23.8816 4.96966 24.4765 4.22607 24.4765H2.59017C1.84658 24.4765 1.24551 23.8816 1.23932 23.138V21.5145C1.61111 21.7562 2.10064 21.8739 2.59017 21.8739H5.57692V23.138ZM27.7607 23.138C27.7545 23.8816 27.1534 24.4765 26.4098 24.4765H24.7739C24.0303 24.4765 23.4293 23.8754 23.4231 23.138V21.8739H26.4098C26.8994 21.8739 27.3889 21.7562 27.7607 21.5145V23.138ZM26.4098 20.6346H2.59017C1.85278 20.6408 1.24551 20.0521 1.23932 19.3085V14.4256C1.23932 13.744 1.54295 13.0934 2.06346 12.6534C2.06966 12.6472 2.08205 12.6348 2.08825 12.6286L2.93098 11.8355H26.3974L26.9923 12.4737C26.9985 12.4861 27.0171 12.4923 27.0233 12.5047C27.488 12.9447 27.7545 13.5581 27.7545 14.1964V19.3085H27.7607C27.7545 20.0459 27.1472 20.6408 26.4098 20.6346Z" fill="#012E52"/>
<path d="M8.17945 14.3141H3.53201C3.1912 14.3141 2.91235 14.5929 2.91235 14.9337V18.156C2.91235 18.4968 3.1912 18.7756 3.53201 18.7756H8.17945C8.52026 18.7756 8.79911 18.4968 8.79911 18.156V14.9337C8.79911 14.5929 8.52026 14.3141 8.17945 14.3141ZM7.55979 17.5363H4.15167V15.5534H7.55979V17.5363Z" fill="#012E52"/>
<path d="M25.468 14.3141H20.8206C20.4798 14.3141 20.2009 14.5929 20.2009 14.9337V18.156C20.2009 18.4968 20.4798 18.7756 20.8206 18.7756H25.468C25.8088 18.7756 26.0877 18.4968 26.0877 18.156V14.9337C26.0877 14.5929 25.8088 14.3141 25.468 14.3141ZM24.8484 17.5363H21.4402V15.5534H24.8484V17.5363Z" fill="#012E52"/>
<path d="M17.493 16.9167H11.5071C11.1663 16.9167 10.8875 17.1955 10.8875 17.5363C10.8875 17.8772 11.1663 18.156 11.5071 18.156H17.493C17.8338 18.156 18.1127 17.8772 18.1127 17.5363C18.1127 17.1955 17.8338 16.9167 17.493 16.9167Z" fill="#012E52"/>
<path d="M17.493 14.9957H11.5071C11.1663 14.9957 10.8875 15.2746 10.8875 15.6154C10.8875 15.9562 11.1663 16.235 11.5071 16.235H17.493C17.8338 16.235 18.1127 15.9562 18.1127 15.6154C18.1127 15.2746 17.8338 14.9957 17.493 14.9957Z" fill="#012E52"/>
</svg>
