<svg width="29" height="29" viewBox="0 0 29 29" fill="none" xmlns="http://www.w3.org/2000/svg">
<g clip-path="url(#clip0)">
<path d="M19.5899 15.9634C20.6747 15.4609 21.7548 15.0943 22.8158 14.8698C23.1218 14.8051 23.3174 14.5045 23.2526 14.1984C23.1879 13.8924 22.8876 13.6968 22.5812 13.7616C21.3531 14.0214 20.1058 14.456 18.8583 15.0567C18.1615 14.2256 17.3638 13.3566 16.5031 12.4959C15.5885 11.5814 14.6644 10.7373 13.7866 10.0107C14.5462 9.05008 15.1663 7.97459 15.6354 6.79754C16.3668 4.96233 16.7377 2.86561 16.7377 0.56543C16.7377 0.252604 16.484 -0.000976562 16.1712 -0.000976562C15.8585 -0.000976562 15.6048 0.252604 15.6048 0.56543C15.6048 4.10955 14.6961 7.04274 12.9015 9.30621C12.5628 9.04787 12.2345 8.81044 11.9209 8.599C10.2423 7.46681 9.24245 7.20145 8.68364 7.74021C8.67967 7.74389 8.67554 7.74752 8.67169 7.75131C8.67112 7.75188 8.67055 7.75239 8.66999 7.7529C8.66965 7.75324 8.66936 7.75363 8.66902 7.75392C8.52589 7.89739 8.43753 8.07088 8.40406 8.2779L0.0440727 28.2136C-0.0448531 28.4257 0.00329147 28.6706 0.165907 28.8332C0.274317 28.9415 0.419204 28.9991 0.566583 28.9991C0.640329 28.9991 0.714754 28.9847 0.785498 28.955C0.787084 28.9543 0.785498 28.955 0.787084 28.9543L20.7212 20.5949C20.9103 20.5643 21.0708 20.487 21.2066 20.3648C21.2165 20.3566 21.2257 20.3479 21.2349 20.3392C21.2385 20.3356 21.2424 20.3327 21.246 20.329C21.2466 20.3285 21.247 20.3279 21.2475 20.3273C21.2515 20.3235 21.2551 20.3193 21.2588 20.3153C21.7975 19.7564 21.5322 18.7566 20.4 17.0781C20.1607 16.7233 19.8887 16.3498 19.5899 15.9634ZM4.49246 24.9639C4.37425 25.701 4.11138 26.1855 3.9849 26.3849L1.62418 27.3749L4.02172 21.6577C4.49082 22.8336 4.65343 23.96 4.49246 24.9639ZM7.97789 23.0475C7.74952 24.3493 7.14381 24.9768 6.97156 25.1325L5.47902 25.7583C5.81082 24.5771 5.89805 22.7022 4.61576 20.241L6.31317 16.1935C8.0743 19.5325 8.20644 21.7449 7.97789 23.0475ZM9.99832 23.8631L8.77749 24.3751C8.89383 24.0812 8.99641 23.7465 9.07072 23.3671C9.52407 21.0532 8.784 18.1922 6.87221 14.8604L7.48506 13.3991C7.97013 13.9827 8.52283 14.8088 8.74668 15.3297C8.83883 15.5442 9.04778 15.6727 9.26732 15.6727C9.34191 15.6727 9.41781 15.6578 9.49071 15.6265C9.7781 15.503 9.91093 15.1699 9.78745 14.8825C9.45531 14.1097 8.61312 12.9072 7.96889 12.2454L8.90533 10.0123C9.06936 10.3131 9.27253 10.6426 9.5162 11.0038C9.68397 11.2526 9.86777 11.5105 10.0654 11.7756C12.0029 14.7156 11.9591 17.7248 11.5804 19.7327C11.1776 21.8683 10.3151 23.4319 9.99832 23.8631ZM14.3627 22.033L11.6737 23.1606C12.062 22.3089 12.4581 21.1909 12.6935 19.9427C12.9564 18.5485 13.072 16.7152 12.5855 14.7354C12.8538 15.0189 13.1298 15.3029 13.413 15.5861C14.2602 16.4332 15.1154 17.2194 15.9346 17.9083C15.8534 20.5825 14.6268 21.8011 14.3627 22.033ZM16.3151 21.2142C16.6183 20.5869 16.886 19.7785 17.0054 18.7688C17.3473 19.0298 17.6788 19.2696 17.9952 19.4829C18.3566 19.7267 18.6861 19.9298 18.987 20.0938L16.3151 21.2142ZM18.3072 18.3215C17.0759 17.449 15.6222 16.1931 14.214 14.7849C12.8059 13.3769 11.5499 11.9232 10.6776 10.6918C9.83389 9.50105 9.60654 8.89302 9.54667 8.62964C9.81005 8.68956 10.4181 8.91692 11.6088 9.76053C11.7854 9.88564 11.9669 10.0194 12.1518 10.1596C12.1121 10.2005 12.0729 10.2417 12.0325 10.2821C11.8113 10.5033 11.8113 10.862 12.0325 11.0832C12.1431 11.1938 12.2881 11.2491 12.433 11.2491C12.578 11.2491 12.723 11.1938 12.8335 11.0832C12.9047 11.0121 12.9747 10.94 13.044 10.8672C13.9032 11.5774 14.8116 12.4066 15.7021 13.2971C16.4678 14.0628 17.1878 14.8417 17.8263 15.5912C17.724 15.648 17.6218 15.7058 17.5196 15.7648C17.2487 15.9213 17.1558 16.2677 17.3123 16.5385C17.4172 16.7202 17.6075 16.8219 17.8033 16.8219C17.8994 16.8219 17.9968 16.7973 18.086 16.7458C18.2432 16.655 18.4006 16.5678 18.5579 16.4827C18.804 16.7952 19.0323 17.0991 19.2386 17.3902C20.0823 18.581 20.3096 19.189 20.3694 19.4524C20.106 19.3924 19.4979 19.1651 18.3072 18.3215Z" fill="#CA04CE"/>
<path d="M10.2454 16.3427C10.117 16.0574 9.78178 15.9302 9.49648 16.0586C9.22007 16.183 9.09206 16.5016 9.20115 16.7808C9.28691 17.0053 9.50129 17.145 9.73018 17.145C9.79226 17.145 9.85535 17.1347 9.91732 17.1131C10.2125 17.0098 10.3682 16.6866 10.2648 16.3914C10.2594 16.376 10.2521 16.3575 10.2454 16.3427Z" fill="#CA04CE"/>
<path d="M21.1515 8.76176C21.2621 8.87233 21.407 8.92766 21.552 8.92766C21.697 8.92766 21.8419 8.87233 21.9525 8.76176C23.218 7.49624 25.2684 6.91624 26.7653 6.79543C27.0771 6.77028 27.3095 6.49704 27.2843 6.18529C27.2591 5.87349 26.9865 5.64205 26.6742 5.66629C24.9765 5.80331 22.6342 6.47801 21.1515 7.96075C20.9303 8.18193 20.9303 8.54058 21.1515 8.76176Z" fill="#CA04CE"/>
<path d="M28.5804 5.7753C28.5643 5.77099 28.548 5.76674 28.5315 5.76261C28.228 5.68694 27.9206 5.87187 27.845 6.17541C27.7695 6.47894 27.9543 6.78633 28.2578 6.86189L28.2868 6.86937C28.3359 6.88257 28.3853 6.88891 28.4339 6.88891C28.684 6.88891 28.9128 6.7221 28.9806 6.46914C29.0617 6.16702 28.8825 5.85641 28.5804 5.7753Z" fill="#CA04CE"/>
<path d="M4.16333 4.73633H4.72973V5.30274C4.72973 5.61551 4.98331 5.86914 5.29614 5.86914C5.60897 5.86914 5.86255 5.61551 5.86255 5.30274V4.73633H6.42895C6.74178 4.73633 6.99536 4.48269 6.99536 4.16992C6.99536 3.85715 6.74178 3.60352 6.42895 3.60352H5.86255V3.03711C5.86255 2.72434 5.60897 2.4707 5.29614 2.4707C4.98331 2.4707 4.72973 2.72434 4.72973 3.03711V3.60352H4.16333C3.8505 3.60352 3.59692 3.85715 3.59692 4.16992C3.59692 4.48275 3.8505 4.73633 4.16333 4.73633Z" fill="#CA04CE"/>
<path d="M17.417 10.2305H17.9835V10.7968C17.9835 11.1096 18.2371 11.3632 18.5499 11.3632C18.8627 11.3632 19.1163 11.1096 19.1163 10.7968V10.2305H19.6826C19.9954 10.2305 20.249 9.97683 20.249 9.66406C20.249 9.35129 19.9954 9.09765 19.6826 9.09765H19.1163V8.53119C19.1163 8.21842 18.8627 7.96478 18.5499 7.96478C18.2371 7.96478 17.9835 8.21842 17.9835 8.53119V9.09765H17.417C17.1042 9.09765 16.8506 9.35129 16.8506 9.66406C16.8506 9.97688 17.1042 10.2305 17.417 10.2305Z" fill="#CA04CE"/>
<path d="M25.29 23.6542H24.7236V23.0878C24.7236 22.775 24.47 22.5214 24.1572 22.5214C23.8445 22.5214 23.5908 22.775 23.5908 23.0878V23.6542H23.0244C22.7116 23.6542 22.458 23.9078 22.458 24.2206C22.458 24.5334 22.7116 24.787 23.0244 24.787H23.5908V25.3534C23.5908 25.6662 23.8445 25.9198 24.1572 25.9198C24.47 25.9198 24.7236 25.6662 24.7236 25.3534V24.787H25.29C25.6028 24.787 25.8564 24.5334 25.8564 24.2206C25.8564 23.9078 25.6029 23.6542 25.29 23.6542Z" fill="#CA04CE"/>
<path d="M22.0879 3.3985C23.0248 3.3985 23.7871 2.63623 23.7871 1.69928C23.7871 0.762331 23.0248 6.10352e-05 22.0879 6.10352e-05C21.1509 6.10352e-05 20.3887 0.762331 20.3887 1.69928C20.3887 2.63623 21.1509 3.3985 22.0879 3.3985ZM22.0879 1.13287C22.4002 1.13287 22.6543 1.38696 22.6543 1.69928C22.6543 2.0116 22.4002 2.26569 22.0879 2.26569C21.7756 2.26569 21.5215 2.0116 21.5215 1.69928C21.5215 1.38696 21.7756 1.13287 22.0879 1.13287Z" fill="#CA04CE"/>
<path d="M25.6299 9.83392C24.6929 9.83392 23.9307 10.5962 23.9307 11.5331C23.9307 12.4701 24.6929 13.2324 25.6299 13.2324C26.5668 13.2324 27.3291 12.4701 27.3291 11.5331C27.3291 10.5962 26.5668 9.83392 25.6299 9.83392ZM25.6299 12.0995C25.3176 12.0995 25.0635 11.8455 25.0635 11.5331C25.0635 11.2208 25.3176 10.9667 25.6299 10.9667C25.9422 10.9667 26.1963 11.2208 26.1963 11.5331C26.1963 11.8455 25.9422 12.0995 25.6299 12.0995Z" fill="#CA04CE"/>
<path d="M11.2432 5.41602C12.1801 5.41602 12.9424 4.65375 12.9424 3.7168C12.9424 2.77985 12.1801 2.01758 11.2432 2.01758C10.3062 2.01758 9.54395 2.77985 9.54395 3.7168C9.54395 4.65375 10.3062 5.41602 11.2432 5.41602ZM11.2432 3.15039C11.5555 3.15039 11.8096 3.40448 11.8096 3.7168C11.8096 4.02912 11.5555 4.28321 11.2432 4.28321C10.9308 4.28321 10.6768 4.02912 10.6768 3.7168C10.6768 3.40454 10.9308 3.15039 11.2432 3.15039Z" fill="#CA04CE"/>
<path d="M25.4424 16.6556C25.4424 16.3437 25.188 16.0892 24.876 16.0892C24.564 16.0892 24.3096 16.3437 24.3096 16.6556C24.3096 16.9676 24.564 17.222 24.876 17.222C25.188 17.222 25.4424 16.9676 25.4424 16.6556Z" fill="#CA04CE"/>
<path d="M18.9854 5.38428C19.2973 5.38428 19.5518 5.12985 19.5518 4.81787C19.5518 4.50589 19.2973 4.25146 18.9854 4.25146C18.6734 4.25146 18.4189 4.50589 18.4189 4.81787C18.419 5.12979 18.6734 5.38428 18.9854 5.38428Z" fill="#CA04CE"/>
<path d="M26.5753 20.3372C26.2633 20.3372 26.0088 20.5917 26.0088 20.9037C26.0088 21.2157 26.2633 21.4701 26.5753 21.4701C26.8872 21.4701 27.1417 21.2157 27.1417 20.9037C27.1417 20.5917 26.8872 20.3372 26.5753 20.3372Z" fill="#CA04CE"/>
<path d="M7.88379 1.69928C8.19577 1.69928 8.4502 1.44485 8.4502 1.13287C8.4502 0.820897 8.19577 0.566467 7.88379 0.566467C7.57181 0.566467 7.31738 0.820897 7.31738 1.13287C7.31738 1.44485 7.57181 1.69928 7.88379 1.69928Z" fill="#CA04CE"/>
</g>
<defs>
<clipPath id="clip0">
<rect width="29" height="29" fill="white"/>
</clipPath>
</defs>
</svg>
