<svg width="27" height="27" viewBox="0 0 27 27" fill="none" xmlns="http://www.w3.org/2000/svg">
<g clip-path="url(#clip0)">
<path d="M27.0309 7.40465C26.8892 5.48705 26.0648 3.68358 24.7096 2.3269C23.2107 0.826241 21.2093 0 19.074 0C16.9084 0 14.8703 0.846222 13.3356 2.38273L1.0104 14.7129C0.39283 15.3313 0.0527344 16.1532 0.0527344 17.0274C0.0527344 17.9019 0.39283 18.7238 1.0104 19.3422L7.70148 26.0409C8.31947 26.6593 9.14097 27 10.0148 27C10.8888 27 11.7103 26.6593 12.3279 26.0411L20.2263 18.1429C21.5012 16.8666 21.5012 14.7897 20.2263 13.5134L16.847 10.1301C15.6613 8.94301 15.6444 7.02006 16.8095 5.84363C17.7216 4.92263 19.0231 4.64516 20.2063 5.11977C21.44 5.61436 22.2026 6.69109 22.1493 7.86278C22.1291 8.30422 21.9762 8.9634 21.68 9.4409C21.4514 9.81024 21.5066 10.283 21.8141 10.5905L24.0772 12.8565C24.2696 13.0489 24.5353 13.1475 24.8064 13.1278C25.0768 13.108 25.3247 12.9716 25.4862 12.7539C26.6236 11.2197 27.1722 9.31977 27.0309 7.40465ZM24.6319 11.1731L23.2715 9.81127C23.5721 9.1523 23.7066 8.44059 23.7296 7.93488C23.8143 6.08134 22.6624 4.40002 20.7953 3.65124C19.0112 2.93582 17.0532 3.34925 15.6854 4.73044C13.9099 6.52341 13.9289 9.44728 15.7278 11.2483L19.1071 14.6313C19.7661 15.2913 19.7661 16.365 19.1076 17.0246L11.2089 24.9228C10.8901 25.2421 10.4659 25.418 10.0148 25.418C9.56387 25.418 9.13973 25.2421 8.82065 24.9228L2.12977 18.2243C1.81068 17.9046 1.63477 17.4796 1.63477 17.0274C1.63477 16.5755 1.81068 16.1505 2.12956 15.831L14.4548 3.50107C15.6907 2.26346 17.3313 1.58203 19.074 1.58203C20.7864 1.58203 22.3903 2.24368 23.5904 3.44483C24.6778 4.53371 25.3395 5.98144 25.4532 7.52124C25.5477 8.8019 25.2583 10.0733 24.6319 11.1731Z" fill="#FF9900"/>
<path d="M10.7833 11.2714C10.5515 11.2714 10.3334 11.3618 10.1692 11.526L6.05056 15.6493C5.71293 15.9876 5.71293 16.5378 6.05076 16.8762L10.1692 20.9994C10.3332 21.1636 10.5513 21.2538 10.7833 21.2538C11.0152 21.2538 11.2334 21.1636 11.3975 20.9994L15.5156 16.8767C15.8538 16.5382 15.854 15.9876 15.5158 15.6491L11.3971 11.5258C11.2331 11.3618 11.0152 11.2714 10.7833 11.2714ZM10.7833 19.3756L7.67399 16.2626L10.7833 13.1498L13.8925 16.2626L10.7833 19.3756Z" fill="#FF9900"/>
</g>
<defs>
<clipPath id="clip0">
<rect width="27" height="27" fill="white"/>
</clipPath>
</defs>
</svg>
