<svg width="12" height="12" viewBox="0 0 12 12" fill="none" xmlns="http://www.w3.org/2000/svg">
<g clip-path="url(#clip0)">
<path d="M11.0755 7.53831C10.9105 7.53831 10.7767 7.6721 10.7767 7.83717V10.4907C10.7761 10.9857 10.3751 11.3869 9.88008 11.3873H1.49431C0.99932 11.3869 0.598308 10.9857 0.597724 10.4907V2.7027C0.598308 2.20782 0.99932 1.80669 1.49431 1.80611H4.14788C4.31295 1.80611 4.44674 1.67232 4.44674 1.50725C4.44674 1.34229 4.31295 1.20839 4.14788 1.20839H1.49431C0.669405 1.20932 0.000933944 1.87779 0 2.7027V10.4909C0.000933944 11.3158 0.669405 11.9842 1.49431 11.9852H9.88008C10.705 11.9842 11.3735 11.3158 11.3744 10.4909V7.83717C11.3744 7.6721 11.2406 7.53831 11.0755 7.53831Z" fill="#919191"/>
<path d="M11.256 0.43941C10.7308 -0.0858165 9.87928 -0.0858165 9.35406 0.43941L4.02216 5.7713C3.98562 5.80784 3.95924 5.85314 3.94546 5.90287L3.2443 8.43421C3.21547 8.53799 3.24477 8.64913 3.32089 8.72536C3.39712 8.80148 3.50826 8.83078 3.61205 8.80206L6.14339 8.10079C6.19312 8.08701 6.23842 8.06063 6.27496 8.02409L11.6067 2.69208C12.1311 2.16651 12.1311 1.31568 11.6067 0.790107L11.256 0.43941ZM4.67336 5.96556L9.0371 1.6017L10.4444 3.00904L6.08058 7.3729L4.67336 5.96556ZM4.39224 6.52966L5.51659 7.65413L3.96134 8.08503L4.39224 6.52966ZM11.1841 2.26947L10.8672 2.58643L9.45971 1.17898L9.77678 0.86202C10.0685 0.570279 10.5416 0.570279 10.8333 0.86202L11.1841 1.21272C11.4754 1.50481 11.4754 1.9775 11.1841 2.26947Z" fill="#919191"/>
</g>
<defs>
<clipPath id="clip0">
<rect width="12" height="12" fill="white"/>
</clipPath>
</defs>
</svg>
