<svg width="29" height="29" viewBox="0 0 29 29" fill="none" xmlns="http://www.w3.org/2000/svg">
<path d="M19.578 13.639C19.576 13.639 19.5741 13.639 19.5721 13.639H17.1435V11.2044C17.1467 10.7134 16.7513 10.3126 16.2603 10.3093C16.2583 10.3093 16.2563 10.3093 16.2544 10.3093H12.7457C12.2547 10.3093 11.8566 10.7074 11.8566 11.1984V13.633H9.42802C8.937 13.6297 8.53624 14.025 8.53296 14.516C8.53296 14.5201 8.53296 14.524 8.53296 14.528V18.0307C8.53296 18.5217 8.93104 18.9198 9.42205 18.9198H11.8566V21.3484C11.8533 21.8394 12.2487 22.2402 12.7397 22.2435C12.7418 22.2435 12.7438 22.2435 12.7457 22.2435H16.2484C16.7394 22.2435 17.1375 21.8454 17.1375 21.3544V18.9198H19.5721C20.0631 18.9231 20.4638 18.5277 20.4671 18.0367C20.4671 18.0347 20.4671 18.0327 20.4671 18.0307V14.528C20.4671 14.037 20.0691 13.639 19.578 13.639ZM19.2737 17.7264H16.5467C16.2172 17.7264 15.95 17.9936 15.95 18.3231V21.0501H13.05V18.3231C13.05 17.9936 12.7829 17.7264 12.4533 17.7264H9.72637V14.8324H12.4533C12.7829 14.8324 13.05 14.5652 13.05 14.2357V11.5027H15.9441V14.2297C15.9441 14.5592 16.2112 14.8264 16.5408 14.8264H19.2737V17.7264Z" fill="#E83030"/>
<path d="M24.8827 5.84593H19.9658V3.74552C19.9968 2.78706 19.2449 1.98493 18.2864 1.95398C18.2376 1.95241 18.1887 1.95286 18.1399 1.9554H10.8601C9.90237 1.9055 9.08555 2.64139 9.03557 3.59903C9.03304 3.64781 9.03252 3.69667 9.03416 3.74552V5.834H4.11728C2.21975 5.834 0 6.91404 0 9.95128V22.9297C0 25.9669 2.21975 27.047 4.11728 27.047H24.8827C26.7802 27.047 29 25.9669 29 22.9297V9.96322C29 6.92597 26.7862 5.84593 24.8827 5.84593ZM10.2276 3.74552C10.2276 3.57248 10.2276 3.10704 10.866 3.10704H18.1399C18.7784 3.10704 18.7784 3.56651 18.7784 3.74552V5.834H10.2276V3.74552ZM27.8066 22.9297C27.8066 25.5671 25.7658 25.8535 24.8827 25.8535H4.11728C3.24012 25.8535 1.19342 25.5671 1.19342 22.9297V9.96322C1.19342 7.32577 3.23416 7.03935 4.11728 7.03935H24.8827C25.7599 7.03935 27.8066 7.32577 27.8066 9.96322V22.9297Z" fill="#E83030"/>
</svg>
