<svg width="29" height="29" viewBox="0 0 29 29" fill="none" xmlns="http://www.w3.org/2000/svg">
<g clip-path="url(#clip0)">
<path d="M28.8628 14.1693L26.5709 11.8774C25.9932 11.3014 25.3192 10.8308 24.5793 10.4869C25.0257 9.51346 25.2572 8.45528 25.258 7.38441V4.20993C25.258 3.95163 25.0486 3.7422 24.7903 3.7422H21.6158C20.5448 3.74285 19.4865 3.97414 18.5129 4.42041C18.1689 3.68058 17.6983 3.00658 17.1223 2.42882L14.8304 0.136942C14.6478 -0.0456475 14.3517 -0.0456475 14.1691 0.136942L11.8772 2.42882C11.3012 3.00658 10.8306 3.68058 10.4866 4.42041C9.5133 3.97431 8.45535 3.74296 7.38466 3.7422H4.21018C3.95187 3.7422 3.74245 3.95163 3.74245 4.20993V7.38441C3.74309 8.4554 3.97438 9.51369 4.42065 10.4873C3.68082 10.8313 3.00683 11.3019 2.42906 11.8779L0.137187 14.1698C-0.0454034 14.3524 -0.0454034 14.6485 0.137187 14.8311L2.42906 17.123C3.00683 17.699 3.68082 18.1696 4.42065 18.5136C3.97456 19.4869 3.74321 20.5449 3.74245 21.6156V24.79C3.74245 25.0483 3.95187 25.2578 4.21018 25.2578H7.38466C8.45564 25.2571 9.514 25.0258 10.4876 24.5796C10.8315 25.3194 11.3021 25.9934 11.8781 26.5712L14.17 28.863C14.3527 29.0456 14.6487 29.0456 14.8314 28.863L17.1233 26.5712C17.6993 25.9934 18.1699 25.3194 18.5138 24.5796C19.4872 25.0257 20.5451 25.257 21.6158 25.2578H24.7903C25.0486 25.2578 25.258 25.0483 25.258 24.79V21.6156C25.2574 20.5446 25.0261 19.4863 24.5798 18.5126C25.3196 18.1687 25.9936 17.6981 26.5714 17.1221L28.8633 14.8302C29.0455 14.6475 29.0452 14.3518 28.8628 14.1693ZM18.8571 5.29226C19.7207 4.88814 20.6624 4.67836 21.6158 4.67766H24.3226V7.38441C24.3221 8.33811 24.1125 9.28012 23.7084 10.144C23.0292 9.9312 22.3215 9.82286 21.6097 9.82269H21.4226C20.4394 9.8224 19.4672 10.0296 18.5695 10.4307C18.9706 9.53305 19.1778 8.56081 19.1775 7.57759V7.39049C19.1776 6.6789 19.0696 5.9714 18.8571 5.29226ZM21.4226 10.7581H21.6097C22.1622 10.7593 22.712 10.8354 23.244 10.9845C22.9987 11.355 22.7166 11.6997 22.4021 12.0135L22.3029 12.1127C21.0773 13.3445 19.41 14.035 17.6724 14.0304L15.6293 14.0323L17.1223 12.5393C18.2604 11.395 19.8088 10.7536 21.4226 10.7581ZM18.2421 7.39049V7.57759C18.2465 9.1912 17.6051 10.7396 16.461 11.8774L14.968 13.3709V11.3255C14.9633 9.58789 15.6538 7.92055 16.8857 6.69498L16.9848 6.59582C17.2986 6.28127 17.6434 5.99923 18.0138 5.75391C18.1638 6.28659 18.2405 6.83717 18.2421 7.39049ZM12.5395 3.09019L14.5002 1.12946L16.461 3.09019C16.9726 3.60364 17.3882 4.20467 17.6878 4.86475C17.1936 5.16755 16.7361 5.52647 16.3244 5.93445L16.2252 6.03361C15.4611 6.79823 14.8725 7.71995 14.5002 8.73475C14.128 7.72013 13.5396 6.79864 12.7757 6.03408L12.6766 5.93492C12.2647 5.52677 11.807 5.16767 11.3127 4.86475C11.6123 4.20473 12.0278 3.6037 12.5395 3.09019ZM10.7584 7.39049C10.7595 6.83799 10.8357 6.28823 10.9848 5.75625C11.3552 6.00151 11.7 6.28361 12.0138 6.59816L12.1129 6.69732C13.3448 7.92289 14.0352 9.59023 14.0306 11.3278V13.3732L12.5376 11.8802C11.3935 10.7414 10.7528 9.1919 10.7584 7.57759V7.39049ZM11.8777 12.5393L13.3711 14.0323H11.3257C9.58813 14.0369 7.92079 13.3464 6.69522 12.1146L6.59607 12.0154C6.28152 11.7016 5.99948 11.3568 5.75415 10.9864C6.28684 10.8365 6.83741 10.7597 7.39074 10.7581H7.57783C9.1915 10.7538 10.7398 11.3951 11.8777 12.5393ZM4.67791 4.67766H7.38466C8.33836 4.67807 9.28037 4.88773 10.1443 5.29179C9.93145 5.97105 9.82311 6.67867 9.82293 7.39049V7.57759C9.82264 8.56081 10.0298 9.53305 10.431 10.4307C9.53329 10.0296 8.56106 9.8224 7.57783 9.82269H7.39074C6.67915 9.82263 5.97165 9.93062 5.2925 10.1431C4.88838 9.27954 4.67861 8.33782 4.67791 7.38441V4.67766ZM3.09043 16.4607L1.12971 14.5L3.09043 12.5393C3.60388 12.0276 4.20491 11.612 4.865 11.3124C5.16779 11.8066 5.52672 12.2641 5.9347 12.6758L6.03385 12.775C6.79848 13.5391 7.7202 14.1277 8.73499 14.5C7.72037 14.8722 6.79888 15.4606 6.03432 16.2245L5.93516 16.3237C5.52701 16.7355 5.16791 17.1932 4.865 17.6876C4.20497 17.3879 3.60394 16.9724 3.09043 16.4607ZM10.1433 23.7077C9.27978 24.1118 8.33807 24.3216 7.38466 24.3223H4.67791V21.6156C4.67832 20.6619 4.88798 19.7198 5.29204 18.856C5.9713 19.0688 6.67891 19.1771 7.39074 19.1773H7.57783C8.56106 19.1776 9.53329 18.9704 10.431 18.5692C10.0298 19.4669 9.82264 20.4392 9.82293 21.4224V21.6095C9.82287 22.3211 9.93092 23.0286 10.1433 23.7077ZM7.57783 18.2418H7.39074C6.83823 18.2407 6.28848 18.1645 5.75649 18.0154C6.00176 17.645 6.28386 17.3002 6.5984 16.9864L6.69756 16.8873C7.92313 15.6555 9.59047 14.965 11.3281 14.9696L13.3711 14.9677L11.8781 16.4607C10.7402 17.6049 9.19162 18.2463 7.57783 18.2418ZM10.7584 21.6095V21.4224C10.754 19.8088 11.3954 18.2604 12.5395 17.1225L14.0325 15.6291V17.6745C14.0371 19.4121 13.3466 21.0794 12.1148 22.305L12.0156 22.4042C11.7019 22.7187 11.3571 23.0008 10.9866 23.2461C10.8367 22.7134 10.76 22.1629 10.7584 21.6095ZM16.461 25.9098L14.5002 27.8705L12.5395 25.9098C12.028 25.397 11.6125 24.7968 11.3127 24.1376C11.807 23.8341 12.2645 23.4743 12.6761 23.0655L12.7752 22.9664C13.5393 22.2017 14.1279 21.28 14.5002 20.2652C14.8725 21.2798 15.4609 22.2013 16.2248 22.9659L16.3239 23.0651C16.7356 23.4738 17.1933 23.8336 17.6878 24.1371C17.388 24.7965 16.9725 25.3969 16.461 25.9098ZM18.2421 21.6095C18.2409 22.162 18.1648 22.7117 18.0157 23.2437C17.6452 22.9985 17.3005 22.7164 16.9867 22.4018L16.8875 22.3027C15.6557 21.0771 14.9652 19.4097 14.9698 17.6721V15.6291L16.4628 17.1221C17.6064 18.2604 18.2471 19.8088 18.2421 21.4224V21.6095ZM17.1228 16.4607L15.6293 14.9677H17.6747C19.4123 14.9631 21.0797 15.6536 22.3052 16.8854L22.4044 16.9846C22.7189 17.2984 23.001 17.6431 23.2463 18.0136C22.7136 18.1635 22.1631 18.2403 21.6097 18.2418H21.4226C19.809 18.2462 18.2607 17.6048 17.1228 16.4607ZM24.3226 24.3223H21.6158C20.6621 24.3219 19.7201 24.1122 18.8562 23.7082C19.069 23.0289 19.1774 22.3213 19.1775 21.6095V21.4224C19.1778 20.4392 18.9706 19.4669 18.5695 18.5692C19.4672 18.9704 20.4394 19.1776 21.4226 19.1773H21.6097C22.3213 19.1773 23.0288 19.0694 23.708 18.8569C24.1121 19.7204 24.3219 20.6621 24.3226 21.6156V24.3223ZM25.91 16.4607C25.3972 16.9722 24.7971 17.3877 24.1378 17.6876C23.8343 17.1932 23.4746 16.7357 23.0658 16.3241L22.9666 16.225C22.202 15.4609 21.2803 14.8723 20.2655 14.5C21.2801 14.1277 22.2016 13.5393 22.9661 12.7755L23.0653 12.6763C23.4741 12.2646 23.8338 11.8069 24.1373 11.3124C24.7966 11.6123 25.3968 12.0278 25.9096 12.5393L27.8708 14.5L25.91 16.4607Z" fill="#85C800"/>
</g>
<defs>
<clipPath id="clip0">
<rect width="29" height="29" fill="white"/>
</clipPath>
</defs>
</svg>
