<svg width="35" height="35" viewBox="0 0 35 35" fill="none" xmlns="http://www.w3.org/2000/svg">
<g clip-path="url(#clip0)">
<path d="M23.0822 11.2688L21.9892 6.15625C21.9323 5.88991 21.7368 5.68347 21.4734 5.61263C21.2158 5.54055 20.9358 5.61857 20.748 5.81615C16.4157 10.4174 13.5941 11.4929 11.6198 11.915L5.97455 13.1218C3.73963 13.5996 2.31025 15.8063 2.78804 18.0413L3.10987 19.5466C3.58766 21.7816 5.79437 23.2109 8.02929 22.7332L10.739 22.1539L15.204 28.6525C15.3722 28.9011 15.6744 29.0121 15.9523 28.9527C16.045 28.9329 16.1281 28.8969 16.2133 28.8424C16.5459 28.6139 16.6259 28.1669 16.4032 27.8331L12.2733 21.8258L13.6687 21.5275C20.5472 20.057 24.1397 23.0974 24.3029 23.238C24.4815 23.3936 24.7122 23.4533 24.9322 23.4062C25.0075 23.3901 25.0803 23.3625 25.1448 23.3244C25.4133 23.1641 25.5532 22.8557 25.4876 22.5488L24.3959 17.4421C25.7335 16.8171 26.5129 15.3366 26.1911 13.8312C25.8808 12.3234 24.5572 11.2864 23.0822 11.2688ZM4.52841 19.2434L4.20658 17.738C3.89589 16.2847 4.82453 14.8511 6.27781 14.5404L8.75591 14.0106L10.2041 20.7848L7.72603 21.3146C6.27275 21.6253 4.83909 20.6967 4.52841 19.2434ZM23.7097 21.1428C21.8576 20.1826 18.3795 19.0371 13.3654 20.109L11.6169 20.4828L10.1687 13.7086L11.9172 13.3348C13.9437 12.9015 16.7611 11.8633 20.8553 7.7912L23.7097 21.1428ZM24.0823 15.9471L23.4003 12.7568C24.0722 12.8977 24.6261 13.4211 24.7783 14.1333C24.9351 14.8384 24.6379 15.5437 24.0823 15.9471Z" fill="#FF9900"/>
<path d="M30.445 12.1771L27.6716 12.77C27.2779 12.8542 27.0276 13.2407 27.1117 13.6344C27.1959 14.0281 27.5824 14.2785 27.9761 14.1943L30.7495 13.6014C31.1432 13.5172 31.3936 13.1307 31.3094 12.737C31.224 12.3375 30.8387 12.0929 30.445 12.1771Z" fill="#FF9900"/>
<path d="M26.368 11.4866C26.5374 11.741 26.8409 11.8578 27.1246 11.7971C27.2115 11.7786 27.2946 11.7426 27.3753 11.6951L29.8365 10.067C30.1703 9.84427 30.2619 9.39482 30.0392 9.061C29.8165 8.72717 29.367 8.63557 29.0332 8.8583L26.5719 10.4864C26.2427 10.7021 26.1511 11.1516 26.368 11.4866Z" fill="#FF9900"/>
<path d="M31.0544 15.7643L28.1426 15.2849C27.7469 15.2181 27.3742 15.4855 27.3074 15.8812C27.2406 16.2769 27.508 16.6496 27.9037 16.7164L30.8155 17.1958C30.9098 17.212 30.9991 17.205 31.086 17.1864C31.3697 17.1258 31.5989 16.8951 31.6495 16.5937C31.7175 16.2038 31.4501 15.8311 31.0544 15.7643Z" fill="#FF9900"/>
</g>
<defs>
<clipPath id="clip0">
<rect width="29" height="29" fill="white" transform="translate(0.289062 6.35175) rotate(-12.0672)"/>
</clipPath>
</defs>
</svg>
