<svg width="27" height="27" viewBox="0 0 27 27" fill="none" xmlns="http://www.w3.org/2000/svg">
<path d="M14.4095 16.9466H12.8659C12.3046 16.9466 11.8499 16.4919 11.8499 15.9306C11.8499 15.3692 12.3046 14.9146 12.8659 14.9146H15.5827C15.9532 14.9146 16.2563 14.6115 16.2563 14.241C16.2563 13.8705 15.9532 13.5674 15.5827 13.5674H14.3085V12.63C14.3085 12.2595 14.0054 11.9564 13.6349 11.9564C13.2644 11.9564 12.9613 12.2595 12.9613 12.63V13.5674H12.8659C11.5636 13.5674 10.5027 14.6283 10.5027 15.9306C10.5027 17.2329 11.5636 18.2938 12.8659 18.2938H14.4095C14.9709 18.2938 15.4256 18.7485 15.4256 19.3098C15.4256 19.8711 14.9709 20.3258 14.4095 20.3258H11.6422C11.2717 20.3258 10.9686 20.6289 10.9686 20.9994C10.9686 21.3699 11.2717 21.673 11.6422 21.673H12.9669V22.6329C12.9669 23.0033 13.27 23.3065 13.6405 23.3065C14.011 23.3065 14.3141 23.0033 14.3141 22.6329V21.673H14.4264C14.432 21.673 14.4376 21.673 14.4432 21.673C15.7343 21.6562 16.7727 20.6009 16.7727 19.3098C16.7727 18.0075 15.7118 16.9466 14.4095 16.9466Z" fill="#3E7C00"/>
<path d="M23.7613 15.4198C23.054 13.7919 22.0773 12.2146 20.8424 10.7383C19.3492 8.942 17.8617 7.74075 17.1039 7.18503L19.9667 1.87484C20.107 1.61102 20.0621 1.28545 19.8432 1.07775C19.1022 0.353638 18.3164 0 17.4407 0C16.638 0 15.9027 0.303118 15.2627 0.572557C14.7575 0.780249 14.2804 0.982329 13.8931 0.982329C13.7752 0.982329 13.6742 0.965489 13.5731 0.926195C12.2372 0.437838 11.2099 0.134719 10.2164 0.134719C8.959 0.134719 7.88686 0.639917 6.83717 1.71767C6.61825 1.9422 6.58457 2.29584 6.75859 2.55967L9.8459 7.22432C9.08249 7.79127 7.62303 8.98129 6.15796 10.7383C4.92865 12.2146 3.94632 13.7919 3.23904 15.4198C2.35214 17.4686 1.90308 19.6073 1.90308 21.774C1.90308 24.6536 4.24944 27 7.12906 27H19.8713C22.7509 27 25.0973 24.6536 25.0973 21.774C25.0973 19.6073 24.6482 17.4686 23.7613 15.4198ZM8.19559 2.279C8.84674 1.71767 9.46981 1.47069 10.2164 1.47069C11.0135 1.47069 11.9116 1.74012 13.1072 2.18358C13.3542 2.27339 13.618 2.3183 13.8875 2.3183C14.5442 2.3183 15.1729 2.06008 15.7736 1.80748C16.3517 1.56611 16.9018 1.33597 17.4351 1.33597C17.6933 1.33597 18.0582 1.38087 18.5185 1.70644L15.8241 6.71351H11.1314L8.19559 2.279ZM19.8713 25.6528H7.12906C4.99039 25.6528 3.25027 23.9127 3.25027 21.774C3.25027 18.1759 4.5694 14.763 7.16274 11.6308C8.80183 9.64927 10.469 8.41996 10.9742 8.06071H16.0149C16.5257 8.41435 18.1873 9.64927 19.8264 11.6308C22.4253 14.763 23.7388 18.1703 23.7388 21.774C23.7501 23.9127 22.0099 25.6528 19.8713 25.6528Z" fill="#3E7C00"/>
</svg>
