<svg width="29" height="29" viewBox="0 0 29 29" fill="none" xmlns="http://www.w3.org/2000/svg">
<g clip-path="url(#clip0)">
<path d="M19.3929 15.3695C18.088 13.3338 15.8655 12.1182 13.4476 12.1182C11.03 12.1182 8.8073 13.3338 7.50257 15.3695L4.35813 20.2749C3.83642 21.0889 3.5957 22.029 3.66185 22.9934C3.72801 23.9581 4.09506 24.8564 4.7232 25.5916C5.35178 26.3266 6.18236 26.8289 7.12512 27.0444C8.06787 27.2596 9.0343 27.1678 9.91976 26.7786L9.9775 26.753C12.2057 25.7925 14.7526 25.8011 16.9753 26.7786C17.5485 27.0306 18.1559 27.1581 18.7687 27.1581C19.102 27.1581 19.4372 27.1202 19.7693 27.0446C20.712 26.8293 21.5426 26.3271 22.1714 25.5921C22.7997 24.8571 23.167 23.9585 23.2334 22.9939C23.2998 22.029 23.0591 21.0889 22.5373 20.2747L19.3929 15.3695ZM20.8795 24.4871C20.0797 25.4221 18.7858 25.7177 17.6596 25.2226C16.321 24.6338 14.8842 24.3395 13.447 24.3395C12.011 24.3395 10.5744 24.6336 9.23675 25.2217L9.19869 25.2385C8.08115 25.7111 6.80629 25.4117 6.01531 24.4871C5.21637 23.5519 5.12544 22.2279 5.78919 21.1922L8.93385 16.2868C9.92462 14.7412 11.6119 13.8183 13.4476 13.8183C15.2834 13.8183 16.9708 14.7412 17.9618 16.2868L21.1061 21.192C21.77 22.2281 21.6789 23.5523 20.8795 24.4871Z" fill="black"/>
<path d="M5.20499 15.3631C6.14044 15.0038 6.85111 14.25 7.20622 13.2404C7.54385 12.2797 7.51619 11.1951 7.12789 10.1862C6.73937 9.17797 6.03269 8.35491 5.13817 7.86838C4.19807 7.3575 3.16548 7.27431 2.23158 7.63429C0.3527 8.35668 -0.509521 10.6785 0.309777 12.8112C0.964242 14.5086 2.49066 15.5801 4.0339 15.5801C4.42795 15.5801 4.82311 15.5102 5.20499 15.3631ZM1.89616 12.2005C1.41338 10.9438 1.83753 9.60698 2.84223 9.22067C3.02366 9.15076 3.21549 9.11602 3.41129 9.11602C3.71352 9.11602 4.02571 9.19855 4.32617 9.36206C4.86647 9.65566 5.29813 10.1654 5.54151 10.7971C5.78467 11.4292 5.80635 12.0965 5.60236 12.6764C5.4154 13.2079 5.05763 13.5986 4.59522 13.7763L4.59433 13.7767C3.59095 14.1635 2.38048 13.4561 1.89616 12.2005Z" fill="black"/>
<path d="M11.3062 11.52C13.655 11.52 15.566 9.34283 15.566 6.66678C15.566 3.99007 13.655 1.8125 11.3062 1.8125C8.95761 1.8125 7.04688 3.99007 7.04688 6.66678C7.04688 9.34283 8.95761 11.52 11.3062 11.52ZM11.3062 3.51238C12.7176 3.51238 13.8661 4.92751 13.8661 6.66678C13.8661 8.40538 12.7176 9.82007 11.3062 9.82007C9.89484 9.82007 8.74676 8.40538 8.74676 6.66678C8.74676 4.92751 9.89484 3.51238 11.3062 3.51238Z" fill="black"/>
<path d="M18.6628 12.7123H18.6631C19.0244 12.8322 19.393 12.8895 19.76 12.8895C21.473 12.8895 23.1423 11.6428 23.7793 9.72672C24.1461 8.62378 24.122 7.45756 23.7114 6.44311C23.2817 5.38132 22.4854 4.61048 21.469 4.27241C20.4525 3.93477 19.3527 4.07549 18.3728 4.66889C17.4367 5.23596 16.7194 6.15549 16.3532 7.25843C15.5799 9.58512 16.616 12.0317 18.6628 12.7123ZM17.9663 7.79452C18.2055 7.07435 18.6626 6.48095 19.2536 6.12296C19.8003 5.79175 20.3968 5.70745 20.9329 5.88556C21.4688 6.06389 21.8958 6.48825 22.1356 7.08076C22.3947 7.72107 22.4058 8.47023 22.1661 9.1904C21.6885 10.6277 20.3574 11.4839 19.1992 11.0991C18.0418 10.7142 17.4886 9.23178 17.9663 7.79452Z" fill="black"/>
<path d="M27.6336 12.1459L27.633 12.1452C26.0132 10.9487 23.5907 11.4673 22.2324 13.3019C20.8755 15.1374 21.0877 17.605 22.705 18.8025C23.2949 19.2394 23.9918 19.4483 24.7051 19.4483C25.9484 19.4483 27.2418 18.8137 28.1062 17.6469C29.4632 15.8114 29.2512 13.3437 27.6336 12.1459ZM26.74 16.6355C25.938 17.7181 24.5819 18.0772 23.7166 17.4362C22.8519 16.7962 22.7993 15.3947 23.5991 14.3128C24.1308 13.5946 24.9074 13.1951 25.6231 13.1951C25.9851 13.1951 26.3316 13.2973 26.6227 13.5125C27.4867 14.1533 27.5392 15.5543 26.74 16.6355Z" fill="black"/>
</g>
<defs>
<clipPath id="clip0">
<rect width="29" height="29" fill="white"/>
</clipPath>
</defs>
</svg>
