<svg width="29" height="29" viewBox="0 0 29 29" fill="none" xmlns="http://www.w3.org/2000/svg">
<g clip-path="url(#clip0)">
<path d="M26.8186 7.86837L26.8177 7.8458C26.8051 7.56725 26.7967 7.27254 26.7916 6.94465C26.7679 5.34566 25.4968 4.02302 23.8976 3.93363C20.5634 3.74756 17.984 2.66033 15.7801 0.512192L15.7613 0.494271C15.0425 -0.164838 13.9581 -0.164838 13.239 0.494271L13.2202 0.512192C11.0163 2.66033 8.43699 3.74756 5.10273 3.93385C3.50374 4.02302 2.23243 5.34566 2.20875 6.94487C2.20389 7.27055 2.19526 7.56526 2.18264 7.8458L2.18132 7.89824C2.11649 11.2982 2.03596 15.5297 3.45152 19.3704C4.22989 21.4824 5.40872 23.3184 6.95505 24.8275C8.71621 26.5462 11.023 27.9107 13.8112 28.8829C13.9019 28.9145 13.9962 28.9402 14.0922 28.9594C14.2276 28.9864 14.3639 28.9999 14.5002 28.9999C14.6365 28.9999 14.773 28.9864 14.9082 28.9594C15.0042 28.9402 15.0991 28.9143 15.1903 28.8824C17.9752 27.9085 20.2795 26.5434 22.0391 24.8249C23.5848 23.3153 24.7636 21.4789 25.5426 19.3664C26.9635 15.5142 26.8832 11.2748 26.8186 7.86837ZM23.9461 18.7776C22.4531 22.8257 19.4053 25.6057 14.6287 27.2761C14.6117 27.2819 14.5935 27.287 14.5747 27.2907C14.5254 27.3005 14.4752 27.3005 14.4252 27.2905C14.4066 27.2868 14.3884 27.2819 14.3716 27.2761C9.58993 25.6088 6.5402 22.8303 5.0483 18.7821C3.74358 15.2418 3.81747 11.3575 3.88274 7.93077L3.88319 7.91174C3.89646 7.61725 3.90531 7.30883 3.91018 6.96987C3.9208 6.25987 4.48632 5.67245 5.19764 5.63284C7.08448 5.52753 8.7421 5.16291 10.2652 4.51818C11.7863 3.87433 13.1373 2.96676 14.3949 1.74368C14.4588 1.68969 14.5418 1.68947 14.6055 1.74368C15.8633 2.96676 17.2143 3.87433 18.7352 4.51818C20.2583 5.16291 21.9159 5.52753 23.8029 5.63284C24.5143 5.67245 25.0798 6.25987 25.0902 6.97009C25.0953 7.31082 25.1041 7.61924 25.1174 7.91174C25.1824 11.3425 25.2546 15.2299 23.9461 18.7776Z" fill="#757575"/>
<path d="M14.4999 7.27325C10.5147 7.27325 7.27271 10.5155 7.27271 14.5005C7.27271 18.4857 10.5147 21.7279 14.4999 21.7279C18.4849 21.7279 21.7271 18.4857 21.7271 14.5005C21.7271 10.5155 18.4849 7.27325 14.4999 7.27325ZM14.4999 20.026C11.453 20.026 8.97436 17.5473 8.97436 14.5005C8.97436 11.4536 11.453 8.97491 14.4999 8.97491C17.5466 8.97491 20.0253 11.4536 20.0253 14.5005C20.0253 17.5473 17.5466 20.026 14.4999 20.026Z" fill="#757575"/>
<path d="M16.5769 12.2567L13.22 15.6136L12.3089 14.7025C11.9766 14.3701 11.4378 14.3701 11.1055 14.7025C10.7734 15.0348 10.7734 15.5735 11.1055 15.9056L12.6184 17.4186C12.7846 17.5847 13.0023 17.6677 13.22 17.6677C13.4377 17.6677 13.6555 17.5847 13.8216 17.4186L17.7803 13.4599C18.1124 13.1276 18.1124 12.5888 17.7803 12.2567C17.4479 11.9242 16.9092 11.9242 16.5769 12.2567Z" fill="#757575"/>
</g>
<defs>
<clipPath id="clip0">
<rect width="29" height="29" fill="white"/>
</clipPath>
</defs>
</svg>
