<?xml version="1.0" standalone="no"?>
<!DOCTYPE svg PUBLIC "-//W3C//DTD SVG 1.1//EN" "http://www.w3.org/Graphics/SVG/1.1/DTD/svg11.dtd">
<svg xmlns="http://www.w3.org/2000/svg">
<metadata>Copyright (C) 2019 by original authors @ fontello.com</metadata>
<defs>
<font id="icon" horiz-adv-x="1000" >
<font-face font-family="icon" font-weight="400" font-stretch="normal" units-per-em="1000" ascent="850" descent="-150" />
<missing-glyph horiz-adv-x="1000" />
<glyph glyph-name="confetti" unicode="&#xe800;" d="M676 300c37 17 74 30 111 37 10 3 17 13 15 23-2 11-13 18-23 16-43-9-86-24-129-45-24 29-51 58-81 88-31 32-63 61-94 86 27 33 48 70 64 111 25 63 38 135 38 215 0 10-9 19-19 19-11 0-20-9-20-19 0-123-31-224-93-302-12 9-23 17-34 25-58 39-92 48-112 29 0 0 0 0 0 0 0 0 0 0 0 0 0 0 0 0 0 0-5-5-8-11-9-18l-288-688c-4-7-2-16 4-21 4-4 9-6 14-6 2 0 5 0 7 2 0 0 0 0 0 0l688 288c6 1 12 4 16 8 1 0 1 0 1 1 0 0 1 0 1 0 0 0 0 0 0 0 0 0 0 0 0 1 19 19 10 53-30 111-8 12-17 25-27 39z m-521-311c-4-25-13-42-18-49l-81-34 83 197c16-40 22-79 16-114z m120 66c-8-45-29-66-35-72l-51-21c11 41 14 105-30 190l59 140c60-115 65-192 57-237z m70-28l-42-17c4 10 7 21 10 34 15 80-10 179-76 294l21 50c17-20 36-49 44-67 3-7 10-11 18-11 2 0 5 0 7 1 10 4 15 16 11 26-12 27-41 68-63 91l32 77c6-11 13-22 21-34 6-9 12-18 19-27 67-101 65-205 52-274-14-74-43-128-54-143z m150 63l-92-39c13 30 27 68 35 111 9 48 13 112-4 180 9-10 19-20 29-29 29-30 58-57 87-80-3-93-46-135-55-143z m68 29c10 21 19 49 23 84 12-9 24-17 35-25 12-8 23-15 34-21l-92-38z m68 99c-42 30-92 74-141 122-48 49-92 99-122 141-29 41-37 62-39 71 9-2 30-9 71-39 6-4 13-8 19-13-1-2-3-3-4-5-8-7-8-20 0-27 4-4 9-6 14-6 5 0 10 2 14 6 2 2 4 5 7 7 29-24 61-53 92-83 26-27 51-54 73-80-4-2-7-4-11-6-9-5-12-17-7-26 4-7 10-10 17-10 3 0 7 1 10 3 5 3 11 6 16 9 8-11 16-22 23-32 30-41 37-62 39-71-9 2-30 10-71 39z m-278 69c-4 9-16 14-25 9-10-4-14-15-11-25 3-7 11-12 19-12 2 0 4 0 6 1 10 4 16 15 12 25 0 0 0 1-1 2z m376 261c4-4 9-6 14-6 5 0 10 2 14 6 44 44 114 64 166 68 11 1 19 10 18 21-1 11-10 18-21 18-59-5-139-28-191-79-7-8-7-20 0-28z m257 103c-1 0-2 0-2 0-11 3-21-3-24-14-2-10 4-21 14-24l1 0c2 0 4 0 6 0 8 0 16 5 18 14 3 10-3 21-13 24z m-842 36h19v-20c0-11 9-19 20-19 10 0 19 8 19 19v20h20c11 0 19 8 19 19 0 11-8 20-19 20h-20v19c0 11-9 20-19 20-11 0-20-9-20-20v-19h-19c-11 0-20-9-20-20 0-11 9-19 20-19z m457-190h19v-19c0-11 9-20 20-20 10 0 19 9 19 20v19h20c11 0 19 9 19 20 0 11-8 19-19 19h-20v20c0 11-9 19-19 19-11 0-20-8-20-19v-20h-19c-11 0-20-8-20-19 0-11 9-20 20-20z m271-463h-19v20c0 11-9 19-20 19-11 0-19-8-19-19v-20h-20c-11 0-20-8-20-19 0-11 9-20 20-20h20v-19c0-11 8-20 19-20 11 0 20 9 20 20v19h19c11 0 20 9 20 20 0 11-9 19-20 19z m-110 699c32 0 58 26 58 58 0 33-26 59-58 59-33 0-59-26-59-59 0-32 26-58 59-58z m0 78c10 0 19-9 19-20 0-10-9-19-19-19-11 0-20 9-20 19 0 11 9 20 20 20z m122-300c-32 0-59-26-59-59 0-32 27-58 59-58 32 0 58 26 58 58 0 33-26 59-58 59z m0-78c-11 0-20 9-20 19 0 11 9 20 20 20 11 0 19-9 19-20 0-10-8-19-19-19z m-496 230c32 0 58 27 58 59 0 32-26 58-58 58-33 0-59-26-59-58 0-32 26-59 59-59z m0 78c11 0 19-8 19-19 0-11-8-20-19-20-11 0-20 9-20 20 0 11 9 19 20 19z m489-465c0 10-8 19-19 19-11 0-20-9-20-19 0-11 9-20 20-20 11 0 19 9 19 20z m-222 388c10 0 19 9 19 20 0 11-9 19-19 19-11 0-20-8-20-19 0-11 9-20 20-20z m261-515c-10 0-19-9-19-20 0-11 9-19 19-19 11 0 20 8 20 19 0 11-9 20-20 20z m-644 642c11 0 19 9 19 20 0 11-8 20-19 20-11 0-20-9-20-20 0-11 9-20 20-20z" horiz-adv-x="1000" />

<glyph glyph-name="delivery-truck" unicode="&#xe801;" d="M818 192c-25 0-48-9-66-26-17-18-27-41-27-65 0-25 10-47 27-65 18-17 41-27 66-27 50 0 90 41 90 92 0 50-40 91-90 91z m0-142c-28 0-52 23-52 51 0 28 24 51 52 51 27 0 50-23 50-51 0-28-23-51-50-51z m23 448c-3 3-8 5-13 5h-105c-11 0-20-9-20-20v-167c0-12 9-21 20-21h166c11 0 20 9 20 21v111c0 6-2 12-6 15l-62 56z m28-162h-126v126h77l49-44v-82z m-549-144c-24 0-47-9-65-26-17-18-27-41-27-65 0-25 9-47 27-65 18-17 41-27 65-27 50 0 91 41 91 92 0 50-41 91-91 91z m0-142c-28 0-51 23-51 51 0 28 23 51 51 51 28 0 50-23 50-51 0-28-22-51-50-51z m-135 117h-41v55c0 11-10 20-21 20-11 0-20-9-20-20v-75c0-11 9-20 20-20h62c11 0 20 9 20 20 0 11-9 20-20 20z m103 111c0 12-9 21-21 21h-247c-11 0-20-9-20-21 0-11 9-20 20-20h247c12 0 21 9 21 20z m-226 74l247-2c11 0 20 9 20 21 1 11-9 20-20 20l-247 2c0 0 0 0 0 0-11 0-20-9-20-21-1-11 9-20 20-20z m41 92h247c11 0 21 9 21 21 0 11-10 20-21 20h-247c-11 0-20-9-20-20 0-12 9-21 20-21z m890 28l-146 121c-4 3-8 4-13 4h-172v74c0 11-9 20-20 20h-519c-11 0-20-9-20-20v-149c0-12 9-21 20-21 11 0 21 9 21 21v128h478v-483h-167c-11 0-21-9-21-20 0-11 10-20 21-20h248c12 0 21 9 21 20 0 11-9 20-21 20h-41v390h165l132-110-1-279h-21c-11 0-21-9-21-21 0-11 10-20 21-20h41c11 0 20 9 20 20l2 309c0 6-3 12-7 16z" horiz-adv-x="1000" />

<glyph glyph-name="do-not-disturb" unicode="&#xe802;" d="M1001 576c-5 71-36 138-86 188-55 55-129 86-209 86-80 0-155-31-212-88l-457-457c-22-23-35-53-35-86 0-32 13-62 35-85l248-249c23-22 54-35 86-35 32 0 63 13 86 35l292 293c47 47 47 124 0 172l-125 125c-44 44-45 115-1 159 33 34 82 44 125 26 46-18 74-58 72-101 0-17-6-41-17-59-8-13-6-31 5-42l84-84c7-7 17-11 27-10 10 1 19 6 25 14 42 57 62 127 57 198z m-89-140l-50 51c11 24 16 50 17 69 3 69-40 131-109 159-66 26-138 11-189-40-66-67-65-175 2-242l125-125c24-24 24-64 0-88l-293-293c-12-12-27-18-44-18-17 0-32 6-44 18l-248 248c-12 12-18 28-18 44 0 17 6 33 18 45l456 456c46 46 107 71 171 71 64 0 123-24 168-69 40-40 65-93 69-151 3-47-7-94-31-135z m-513-3c-8 0-16-4-22-10l-153-153c-12-12-12-32 0-45l153-153c6-6 14-9 22-9 9 0 17 3 23 9l153 153c12 13 12 33 0 45l-153 153c-6 6-14 10-23 10z m0-301l-115 116 115 115 116-115-116-116z" horiz-adv-x="1000" />

<glyph glyph-name="envelope" unicode="&#xe803;" d="M1309-92a12 12 0 0 1-2-3c-13-42-32-55-75-55h-1155c-43 0-61 13-75 55a12 12 0 0 1-2 3q0 442 0 884a11 11 0 0 1 2 3c13 42 31 55 74 55h1156c43 0 61-13 75-55a12 12 0 0 1 2-3z m-655-19q289 0 578 0c27 0 34 8 34 34q0 428 0 855c0 24-7 32-31 32q-580 0-1159 0c-26 0-34-7-34-33q0-427 0-854c0-3 0-6 0-9 1-13 7-21 20-23a100 100 0 0 1 19-2q287 0 573 0z m-1 395c-21 1-40 9-57 23q-96 81-192 162l-302 254c-17 13-16 32 1 38 9 4 16 0 23-6q99-83 198-167 149-125 298-249c22-19 43-19 66 0q245 205 489 411c2 1 4 3 6 5 13 10 24 10 32 0 7-9 5-22-6-31q-54-45-108-90-192-162-384-324c-19-15-38-25-64-26z m-219-3a50 50 0 0 0-7-12q-110-118-219-235-41-44-81-87c-10-11-19-13-29-7-12 8-12 22 0 34q44 49 89 97 105 112 210 224c7 7 13 13 24 9 9-4 13-10 13-23z m788-325c-6-6-10-12-16-16-8-6-16-1-22 5q-35 37-70 75l-208 223c-8 8-16 17-24 25-9 10-10 23-2 31 9 9 21 8 31-3q150-161 300-321c4-5 6-11 11-19z" horiz-adv-x="1309" />

<glyph glyph-name="first-aid-kit" unicode="&#xe804;" d="M675 380c0 0 0 0 0 0h-84v84c0 17-13 30-30 31 0 0 0 0 0 0h-121c-17 0-31-14-31-31v-84h-84c-17 0-31-14-31-31 0 0 0 0 0 0v-121c0-17 14-30 31-30h84v-84c0-17 13-31 30-31 0 0 0 0 1 0h120c17 0 31 14 31 31v84h84c17 0 31 13 31 30 0 0 0 0 0 0v121c0 17-14 31-31 31z m-10-141h-94c-12 0-21-9-21-21v-94h-100v94c0 12-9 21-21 21h-94v100h94c12 0 21 9 21 20v94h100v-94c0-11 9-20 20-20h95v-100z m193 409h-169v73c1 33-25 61-58 62-2 0-4 0-5 0h-251c-33 1-62-24-63-57 0-2 0-3 0-5v-72h-170c-65 0-142-37-142-142v-448c0-104 77-142 142-142h716c66 0 142 38 142 142v447c0 105-76 142-142 142z m-505 73c0 6 0 22 22 22h251c22 0 22-16 22-22v-72h-295v72z m606-662c0-91-70-101-101-101h-716c-30 0-101 10-101 101v447c0 91 71 101 101 101h716c30 0 101-10 101-101v-447z" horiz-adv-x="1000" />

<glyph glyph-name="flower" unicode="&#xe805;" d="M995 361l-79 79c-20 20-43 37-68 48 15 34 23 70 23 107v110c0 9-7 16-16 16h-110c-37 0-73-8-107-23-11 25-28 48-48 68l-79 79c-6 7-16 7-22 0l-79-79c-20-20-36-43-48-68-34 15-70 23-107 23h-110c-9 0-16-7-16-16v-110c0-37 8-73 23-107-25-11-48-28-68-48l-79-79c-7-6-7-16 0-22l79-79c20-20 43-36 68-48-15-34-23-70-23-107v-110c0-9 7-16 16-16h110c37 0 73 8 107 23 12-25 28-48 48-68l79-79c6-7 16-7 22 0l80 79c19 20 36 43 47 68 34-15 71-23 107-23h110c9 0 16 7 16 16v110c0 37-8 73-23 107 25 12 48 28 68 48l79 79c7 6 7 16 0 22z m-345 307c30 13 63 21 95 21h94v-94c0-32-7-65-21-95-24 8-48 11-73 11h-6c-34 0-68-7-99-21 14 31 21 65 21 99v6c0 25-3 49-11 73z m89-189h6c19 0 38-3 57-8-9-13-19-24-29-35l-4-4c-42-42-100-66-160-66l-70 0 51 52c40 39 93 61 149 61z m-110 116v-6c0-56-22-109-61-149l-52-51v71c0 59 24 117 66 159l4 4c11 10 22 20 35 29 5-19 8-38 8-57z m-197 148l68 68 68-68c17-17 32-38 42-61-17-10-33-23-47-37l-3-3c-27-26-47-58-60-93-13 35-33 67-59 93l-4 3c-14 14-30 27-47 37 10 23 25 44 42 61z m-61-148c0 19 3 38 8 57 13-9 24-19 35-29l4-4c42-42 66-100 66-160v-70l-52 51c-39 40-61 93-61 149v6z m39-177l51-52h-70c-60 0-118 24-160 66l-3 4c-11 11-21 22-30 35 19 5 38 8 57 8h6c56 0 109-22 149-61z m-249 271h94c33 0 65-7 95-21-7-24-11-48-11-73v-6c0-34 7-68 21-99-31 14-65 21-99 21h-6c-25 0-49-3-72-11-14 30-22 63-22 95v94z m-54-407l-68 68 68 68c17 17 38 32 61 42 10-17 23-33 37-47l3-3c26-27 58-47 93-60-35-13-67-33-93-59l-3-4c-14-14-27-30-37-47-23 10-44 25-61 42z m243-249c-30-14-62-22-95-22h-94v94c0 33 8 65 22 95 23-7 47-11 72-11h6c34 0 68 7 99 21-14-31-21-65-21-99v-6c0-25 3-49 11-72z m-89 188h-6c-19 0-38 3-56 8 8 13 18 24 29 35l3 4c42 42 100 66 160 66l70 0-51-52c-40-39-93-61-149-61z m110-116v6c0 56 22 109 61 149l52 51v-70c0-60-24-118-66-160l-4-4c-10-10-22-20-35-29-5 19-8 38-8 57z m197-148l-68-68-68 68c-17 17-32 38-42 61 17 10 33 23 47 37l4 3c26 26 46 58 59 93 13-35 33-67 60-93l3-3c14-14 30-27 47-37-10-23-25-44-42-61z m61 148c0-19-3-38-8-56-12 8-24 18-35 29l-4 3c-42 42-66 100-66 160v70l52-51c39-40 61-93 61-149v-6z m-39 177l-51 52h71c59 0 117-24 159-66l4-4c10-10 20-22 29-35-19-5-38-8-57-8h-6c-56 0-109 22-149 61z m249-271h-94c-32 0-65 8-95 22 8 23 11 47 11 72v6c0 34-7 68-21 99 31-14 65-21 99-21h6c25 0 49 3 73 11 14-30 21-62 21-95v-94z m54 271c-17-17-38-32-61-42-10 17-22 33-37 47l-3 4c-26 26-58 46-93 59 35 13 67 33 93 60l3 3c15 14 27 30 37 47 23-10 44-25 61-42l68-68-68-68z" horiz-adv-x="1000" />

<glyph glyph-name="internet" unicode="&#xe806;" d="M874 19c78 88 126 204 126 331 0 132-52 253-136 342v0c0 0 0 0 0 0-87 93-210 153-347 158l0 0-9 0c-3 0-5 0-8 0-2 0-5 0-8 0l-9 0 0 0c-137-5-259-65-347-158 0 0 0 0 0 0 0 0 0 0 0 0-84-89-136-210-136-342 0-127 48-243 126-331 0-1 0-1 0-1 1 0 1 0 1-1 88-98 215-162 356-167l0 0 9 0c3 0 6 0 8 0 3 0 5 0 8 0l9 0 0 0c141 5 268 69 356 167 0 1 1 1 1 1 0 0 0 0 0 1z m-839 314h207c2-73 16-144 42-211-49-18-96-41-140-71-65 77-105 175-109 282z m118 327c43-28 89-50 136-67-29-71-45-147-47-226h-207c4 112 48 215 118 293z m812-293h-207c-2 79-18 155-47 226 47 17 93 39 136 67 70-78 114-181 118-293z m-482 225c-50 1-99 9-146 22 35 72 84 137 146 190v-212z m0-34v-191h-207c3 75 18 148 46 215 52-15 106-23 161-24z m34 0c55 1 109 9 161 24 28-67 44-140 46-215h-207v191z m0 34v212c62-53 111-118 146-190-47-13-96-21-146-22z m180 33c-33 69-79 132-136 186 101-13 192-58 262-126-40-25-82-45-126-60z m-394 0c-44 15-86 35-125 60 70 68 160 113 261 126-57-54-103-117-136-186z m-27-292h207v-173c-57-2-113-11-167-27-24 63-38 131-40 200z m207-208v-229c-66 57-118 127-153 205 49 15 100 23 153 24z m34-229v229c53-1 104-9 153-24-35-78-87-148-153-205z m0 264v173h207c-2-69-16-137-40-200-54 16-110 25-167 27z m241 173h207c-4-107-44-205-109-282-44 30-90 53-139 71 25 67 39 138 41 211z m-591-308c41 27 84 49 130 65 33-75 81-143 142-201-106 13-201 63-272 136z m394-136c61 58 109 126 142 201 46-16 89-38 130-65-71-73-166-123-272-136z" horiz-adv-x="1000" />

<glyph glyph-name="job-search" unicode="&#xe807;" d="M972 14l-110 110c-30 30-75 36-111 17l-65 65c59 68 94 157 94 254 0 215-175 390-390 390-215 0-390-175-390-390 0-215 175-390 390-390 97 0 186 35 254 94l65-64c-18-36-13-82 18-112l109-110c19-18 43-28 68-28 26 0 50 10 68 28 0 0 0 0 0 0 18 18 28 42 28 68 0 25-10 49-28 68z m-582 114c-183 0-331 149-331 332 0 183 148 331 331 331 183 0 332-148 332-331 0-183-149-332-332-332z m541-209c0 0 0 0 0 0 0 0 0 0 0 0-15-14-39-14-53 0l-110 110c-15 15-15 39 0 53 15 15 38 15 53 0l110-110c14-14 14-38 0-53z m-698 664h-62c-17 0-30-13-30-29 0-16 13-29 30-29h33v-112c0-10-8-18-18-18-10 0-18 8-18 18 0 16-13 29-29 29-16 0-29-13-29-29 0-42 34-77 76-77 42 0 77 35 77 77v141c0 16-13 29-30 29z m149 0c-46 0-84-37-84-84v-78c0-47 38-85 84-85 47 0 85 38 85 85v78c0 47-38 84-85 84z m26-162c0-14-11-26-26-26-14 0-25 11-25 26v78c0 14 11 26 25 26 15 0 26-12 26-26v-78z m263 86c0 42-35 76-77 76h-63c-16 0-29-13-29-29v-188c0-16 13-30 29-30h63c42 0 77 35 77 77 0 17-6 34-17 47 11 13 17 30 17 47z m-59 0c0-10-8-18-18-18h-33v36h33c10 0 18-8 18-18z m-18-112h-33v36h33c10 0 18-8 18-18 0-10-8-18-18-18z" horiz-adv-x="1000" />

<glyph glyph-name="lock" unicode="&#xe808;" d="M127-150c-7 1-14 3-20 4-62 11-107 68-107 130q1 181 0 363c0 57 40 112 100 127 9 2 12 6 11 15 0 29 1 59 0 88 0 72 26 133 76 183 49 49 108 76 176 86 11 1 22 3 33 4h20c11-1 22-3 33-4 103-16 181-66 228-160 17-34 24-70 24-108-1-30 0-60-1-90 0-8 3-12 11-14a131 131 0 0 0 101-127c0-121-1-243 0-364 0-67-54-125-118-131a45 45 0 0 1-9-2z m279 36q137 0 274 0a97 97 0 0 1 98 98q0 181 0 361c0 55-44 99-98 99q-274 1-549 0c-53 0-97-44-97-98q0-181 0-362c0-61 52-99 98-98 91 1 183 0 274 0z m0 592c83 0 166 0 249 0 9 0 12 3 12 12-1 29-1 59 0 88 0 65-25 119-72 163-52 49-114 72-185 73-64 1-122-17-173-55-60-47-92-107-92-184 1-28 0-56 0-84 0-13 0-13 13-13z m72-277c0-20 1-39 0-59a72 72 0 0 0-66-68c-35-4-68 20-76 55a70 70 0 0 0-2 16c0 38-1 76 0 113 1 57 60 91 109 62 23-14 35-34 35-61 0-20 0-39 0-58z m-34 1c0 19 0 38 0 57a38 38 0 0 1-38 37c-20 0-38-17-38-37q0-57 0-114a38 38 0 0 1 76 0c0 19 0 38 0 57z" horiz-adv-x="812" />

<glyph glyph-name="megaphone" unicode="&#xe809;" d="M660 528l-32 146c-1 8-7 14-14 16-8 2-16 0-21-6-124-132-205-162-261-174l-161-35c-64-14-105-77-91-140l9-43c14-64 77-105 140-91l78 16 127-186c5-7 14-10 22-8 2 0 5 1 7 3 10 7 12 19 6 29l-118 171 40 9c196 42 299-45 303-49 6-4 12-6 18-5 3 1 5 2 6 3 8 4 12 13 10 22l-31 146c38 18 61 60 51 103-8 43-46 73-88 73z m-531-228l-9 43c-9 42 18 83 59 92l71 15 42-194-71-15c-42-9-83 18-92 59z m548-54c-52 27-152 60-295 30l-50-11-41 193 50 11c57 12 138 42 255 158l81-381z m11 148l-19 92c19-4 35-19 39-40 4-20-4-40-20-52z m182 108l-79-17c-12-2-19-13-16-25 2-11 13-18 24-16l80 17c11 3 18 14 16 25-3 12-14 19-25 16z m-117 20c5-7 14-11 22-9 3 1 5 2 7 3l71 46c9 7 12 20 5 29-6 10-19 12-28 6l-71-47c-9-6-12-19-6-28z m134-122l-83 13c-11 2-22-5-24-17-2-11 6-22 17-24l83-13c3-1 6-1 8 0 8 2 15 8 16 17 2 11-5 22-17 24z" horiz-adv-x="1000" />

<glyph glyph-name="money-bag" unicode="&#xe80a;" d="M534 222h-57c-21 0-38 17-38 38 0 21 17 38 38 38h100c14 0 25 11 25 25 0 13-11 25-25 25h-47v34c0 14-11 25-25 25-14 0-25-11-25-25v-34h-3c-49 0-88-40-88-88 0-48 39-87 88-87h57c21 0 37-17 37-38 0-21-16-38-37-38h-103c-13 0-25-11-25-25 0-13 12-25 25-25h49v-35c0-14 12-25 25-25 14 0 25 11 25 25v35h4c1 0 1 0 1 0 48 1 86 40 86 88 0 48-39 87-87 87z m346 57c-26 60-62 119-108 173-55 67-110 111-138 132l106 197c5 9 3 21-5 29-27 27-57 40-89 40-30 0-57-11-81-21-18-8-36-15-50-15-5 0-8 0-12 2-50 18-88 29-125 29-46 0-86-19-125-59-8-8-9-21-3-31l115-173c-29-21-83-65-137-130-45-54-82-113-108-173-33-76-49-155-49-235 0-107 86-194 193-194h472c107 0 194 87 194 194 0 80-17 159-50 235z m-576 487c24 20 47 30 74 30 30 0 63-10 108-27 9-3 18-5 28-5 25 0 48 10 70 19 22 9 42 18 62 18 9 0 23-2 40-14l-100-186h-174l-108 165z m432-866h-472c-79 0-144 64-144 144 0 133 49 259 145 375 61 74 123 119 142 133h186c19-14 81-59 141-133 97-116 145-242 145-375 1-80-64-144-143-144z" horiz-adv-x="1000" />

<glyph glyph-name="paint-palette" unicode="&#xe80b;" d="M660 370c11 0 20 8 20 19 0 11-9 20-20 20-11 0-19-9-19-20 0-11 8-19 19-19z m3-65c-10 2-20-5-22-16-5-36-36-66-81-80-49-15-117-10-158 35-8 8-20 9-28 1-8-7-8-19-1-27 24-26 56-44 94-52 13-2 27-4 41-4 21 0 43 3 63 10 61 18 101 60 109 111 1 11-6 21-17 22z m272 173c-36 41-85 68-144 79 57 38 106 76 140 109 53 50 71 86 56 111-16 29-64 29-150 0-72-25-162-67-254-120-16-9-31-19-47-28-11 32-3 69 22 100 18 24 23 54 11 79-13 26-41 42-74 42h-1c-120 0-236-47-329-132-92-86-149-199-159-319-13-144 34-282 130-387 94-103 229-162 368-162 75 0 145 14 209 41 58 24 110 60 154 105 41 41 73 89 95 142 22 51 33 104 34 155 1 73-20 137-61 185z m-396 106c20 13 42 26 64 39 84 49 168 89 237 113 75 27 106 25 113 22-1-5-6-25-56-70-41-38-101-83-169-126-22-14-44-27-67-40-31-18-62-35-93-51-6 18-14 35-23 52-9 16-20 31-32 45 8 5 17 11 26 16z m-6-130c-55-26-106-46-146-58-2 10-6 20-11 29-5 9-12 17-19 23 30 29 73 63 123 98 12-13 22-27 31-43 9-15 16-32 22-49z m424-161c-3-194-177-404-453-404-129 0-252 55-339 150-89 96-132 223-120 357 19 229 221 415 449 415h0c19 0 33-7 39-20 6-11 3-25-6-37-35-45-44-100-24-146-11-7-21-14-31-20 0 0 0 0 0 0-62-42-115-84-150-119-26 9-55 6-80-8-40-23-94-133-104-154-3-6-2-13 1-18 3-6 9-10 15-10 11-1 42-3 76-3 41 0 88 3 110 16 24 14 41 37 46 64 48 12 111 37 179 70 38 18 77 39 116 62 20 11 39 23 58 35 0 0 0 0 1 0 162-5 219-122 217-230z m-607 80c-2-20-13-37-30-47-18-11-82-12-134-10 24 46 57 100 76 111 17 10 38 11 56 1 10-5 18-13 24-22 6-10 8-22 8-33z m-2 356c-44 0-79-35-79-78 0-43 35-78 79-78 43 0 78 35 78 78 0 43-35 78-78 78z m0-117c-22 0-40 18-40 39 0 22 18 39 40 39 21 0 39-17 39-39 0-21-18-39-39-39z m-98-408c-43 0-78-35-78-78 0-43 35-78 78-78 43 0 78 35 78 78 0 43-35 78-78 78z m0-117c-22 0-39 18-39 39 0 22 17 39 39 39 21 0 39-17 39-39 0-21-18-39-39-39z m195 0c-43 0-78-35-78-78 0-43 35-78 78-78 43 0 78 35 78 78 0 43-35 78-78 78z m0-117c-21 0-39 17-39 39 0 22 18 39 39 39 22 0 39-17 39-39 0-22-17-39-39-39z m235 156c-43 0-79-35-79-78 0-43 36-78 79-78 43 0 78 35 78 78 0 43-35 78-78 78z m0-117c-22 0-39 18-39 39 0 22 17 39 39 39 21 0 39-17 39-39 0-21-18-39-39-39z m156 313c-43 0-78-35-78-78 0-44 35-79 78-79 43 0 78 35 78 79 0 43-35 78-78 78z m0-118c-22 0-39 18-39 40 0 21 17 39 39 39 21 0 39-18 39-39 0-22-18-40-39-40z" horiz-adv-x="1000" />

<glyph glyph-name="pawprint" unicode="&#xe80c;" d="M669 320c-45 70-122 112-205 112-84 0-160-42-205-112l-109-169c-18-28-26-61-24-94 3-33 15-64 37-90 22-25 50-42 83-50 32-7 66-4 96 10l2 0c77 34 165 33 241 0 20-9 41-14 62-14 12 0 23 2 35 4 32 8 61 25 83 50 21 26 34 57 36 90 2 33-6 66-24 94l-108 169z m51-314c-28-33-72-43-111-26-46 21-96 31-145 31-50 0-99-10-145-31l-2 0c-38-17-82-6-110 26-27 32-30 78-7 113l108 169c34 54 92 86 156 86 63 0 121-32 155-86l109-169c23-35 20-81-8-113z m-540 314c32 13 56 39 69 73 11 34 10 71-3 106-14 35-38 63-69 80-32 17-68 20-100 8-65-25-95-105-66-179 22-58 75-95 128-95 14 0 27 2 41 7z m-115 109c-16 44-2 90 33 103 6 3 13 4 20 4 10 0 21-3 31-9 19-10 34-27 42-49 9-22 9-45 2-65-6-18-19-32-34-38l-1 0c-34-13-76 11-93 54z m325 24c81 0 147 75 147 167 0 92-66 168-147 168-81 0-147-76-147-168 0-92 66-167 147-167z m0 276c49 0 88-49 88-109 0-60-39-109-88-109-49 0-88 49-88 109 0 60 39 109 88 109z m254-317h0c12-4 25-6 37-6 59 0 117 43 139 109 13 38 12 78-2 113-15 36-43 63-78 75-35 11-73 7-106-14-33-20-57-51-70-89-27-80 9-165 80-188z m-24 169c8 25 24 46 44 58 19 11 39 14 58 8 18-6 33-21 41-41 9-22 10-48 1-73-16-49-62-79-102-66-40 14-59 65-42 114z m333-150l0 0c-56 42-139 24-186-40-47-63-40-148 16-189 20-15 44-23 69-23 43 0 87 22 117 63 47 63 40 148-16 189z m-31-155c-28-37-74-49-104-27-30 22-32 70-4 108 18 24 45 38 70 38 12 0 24-3 34-11 30-22 32-70 4-108z" horiz-adv-x="1000" />

<glyph glyph-name="phone" unicode="&#xe80d;" d="M184 850c3-1 7-2 11-3a61 61 0 0 0 33-25c45-67 90-134 134-201 18-27 12-58-13-78q-34-27-69-54c-19-14-20-24-9-46 31-61 75-113 123-162s97-97 155-134c16-10 33-20 49-29 15-8 27-6 37 8 19 23 36 46 54 69 24 31 54 36 87 14q60-41 121-81c3-2 6-4 11-7 7 15 14 29 21 43a441 441 0 0 1 37 145c11 155-40 285-154 389-67 61-147 98-237 112-23 3-46 4-69 6-12 0-19 5-19 15 0 10 6 15 18 15a479 479 0 0 0 254-71c107-65 179-158 217-278a452 452 0 0 0 22-122 165 165 0 0 1 2-17v-14c-1-4-2-9-2-13-2-23-3-46-7-68a472 472 0 0 0-53-151c-4-6-3-10 3-13 11-7 22-15 33-22a55 55 0 0 0 24-36 52 52 0 0 1 2-7v-8c-3-9-5-18-10-25-14-26-31-51-45-77-22-40-56-62-100-68-15-2-29-4-44-6h-14a71 71 0 0 1-11 2c-39 1-76 10-113 22a35 35 0 0 1-19 0c-77-22-155-27-233-12-156 31-271 117-347 255-30 55-48 113-55 175-2 18-2 36-3 54 0 13 5 19 15 19s15-7 16-18c0-1 0-2 0-3 2-28 3-57 8-84 29-138 104-243 226-315a439 439 0 0 1 227-60c23 0 46 2 69 4 12 1 24 4 38 7a75 75 0 0 1-6 4c-53 26-102 57-149 92-87 66-166 142-239 224-63 70-119 146-160 232-23 48-40 97-46 151-2 11-4 21-5 32q0 10 0 20c2 16 4 32 7 48 6 36 21 68 54 87 37 23 72 50 115 64z m-154-209l2 0c-1-39 7-76 19-112 21-67 55-127 95-183 85-118 186-220 299-311 61-50 127-92 201-122 63-25 127-38 195-27 31 5 57 19 74 47 15 27 32 53 47 80 10 16 7 30-9 41q-98 65-196 130c-17 12-30 9-43-7-18-24-36-47-55-71s-46-30-72-16c-21 10-41 22-60 34-57 37-105 84-152 132-52 53-99 110-133 176-16 31-10 58 16 79q36 27 70 54c14 11 17 25 8 39q-66 101-133 201c-10 14-24 17-39 8-28-17-57-34-85-51-20-12-34-30-38-53-5-23-8-45-11-68z" horiz-adv-x="1000" />

<glyph glyph-name="shield" unicode="&#xe80e;" d="M925 579l0 1c-1 9-1 19-1 31-1 55-45 100-100 103-115 7-204 44-280 118l0 1c-25 23-63 23-87 0l-1-1c-76-74-165-111-280-118-55-3-99-48-100-103 0-12 0-22-1-31l0-2c-2-118-5-263 44-396 27-73 68-136 121-188 61-59 140-106 236-140 3-1 7-2 10-3 5-1 9-1 14-1 5 0 9 0 14 1 3 1 7 2 10 3 96 34 175 81 236 140 53 52 94 115 121 188 49 133 46 279 44 397z m-99-376c-52-140-157-236-322-294 0 0-1 0-1 0-2 0-4 0-6 0 0 0-1 0-1 0-165 58-270 154-322 293-45 122-42 256-40 375l0 0c0 10 1 21 1 33 0 24 20 44 44 46 65 3 123 16 175 38 52 22 99 54 142 96 3 2 5 2 8 0 43-42 90-74 142-96 53-22 110-35 175-38 24-2 44-22 44-46 0-12 1-23 1-33 2-118 5-252-40-374z m-326 396c-137 0-249-112-249-249 0-137 112-249 249-249 137 0 249 112 249 249 0 137-112 249-249 249z m0-440c-105 0-190 86-190 191 0 105 85 191 190 191 105 0 191-86 191-191 0-105-86-191-191-191z m72 268l-116-115-32 31c-11 12-30 12-41 0-11-11-11-30 0-41l52-53c6-5 13-8 21-8 7 0 15 3 21 8l136 137c12 11 12 30 0 41-11 12-30 12-41 0z" horiz-adv-x="1000" />

<glyph glyph-name="sunset" unicode="&#xe80f;" d="M567 217c0-92 75-166 167-166 91 0 166 74 166 166 0 92-75 167-166 167-92 0-167-75-167-167z m167 133c73 0 133-59 133-133 0-74-60-133-133-133-74 0-134 59-134 133 0 74 60 133 134 133z m-96-466h191v-33h-191v33z m-71 66h333v-33h-333v33z m-366 0h33v-33h-33v33z m-100-33h33v-33h-33v33z m101 127c87 152 142 320 160 493l155-154c3-3 8-4 12-5 1 0 2 1 3 1 5 1 10 4 12 9 31 62 19 138-31 188l-13 13h117c9 0 17 8 17 17 0 2-1 3-1 5-22 67-85 112-155 111h-21l83 84c6 7 6 17 0 24-2 1-3 2-5 3-62 31-138 19-188-31l-15-16c-6-5-10-10-15-16-4 6-9 11-14 16l-16 16c-50 50-125 62-188 31-8-4-12-14-8-23 1-1 2-3 4-4l83-84h-22c-70 1-132-44-154-111-3-9 1-18 10-21 2 0 4-1 5-1h117l-13-13c-50-50-62-126-31-188 3-5 7-8 12-9 1 0 2-1 3-1 5 0 9 2 12 5l144 144c-18-160-78-312-174-440-22 5-45 10-68 13l-10 1-4-33 10-1c17-2 33-5 50-9-4-4-7-9-10-13l25-21c128 152 204 341 218 539l19 19 14-14c-17-212-90-416-211-591l28-19c13 18 25 38 37 58 78-38 147-92 202-158l26 21c-33 39-70 74-111 105h698v33h-747c-17 10-34 19-51 27z m321 381l-176 175c45 13 94 1 127-32l16-16c33-33 46-82 33-127z m69 198h-138c-33 15-69 19-104 12 25 34 64 54 106 54h22c47 0 91-25 114-66z m-237 140l16 16c33 33 82 46 127 33l-99-100c-32-11-59-33-78-61-8 40 5 82 34 112h0z m-92 16l16-16c8-8 14-16 19-25-7-18-12-37-12-56-15 13-33 24-51 30l-99 100c45 13 94 0 127-33h0z m-107-90h22c42 0 82-20 106-54-35 7-71 3-103-12h-138c23 41 66 66 113 66h0z m-45-264c-13 45 0 94 33 127l16 16c24 24 57 37 91 37 12 0 24-2 36-5l-176-175z" horiz-adv-x="1000" />

<glyph glyph-name="translator" unicode="&#xe810;" d="M854 434h-146c-16 0-29-13-29-29 0-4 1-7 2-11 4-11 15-18 27-18h146c48 0 87-40 87-88v-292c0-48-39-87-87-87h-332c-48 0-88 39-88 87v322c0 18 15 32 33 32h66c50 0 91 41 91 92v262c0 80-65 146-146 146h-331c-81 0-147-66-147-146v-312c0-81 66-147 147-147h229v-249c0-80 66-146 146-146h332c80 0 146 66 146 146v292c0 81-66 146-146 146z m-478-130h-229c-49 0-88 39-88 88v312c0 48 39 87 88 87h331c48 0 88-39 88-87v-262c0-18-15-33-33-33h-66c-50 0-91-41-91-91v-14z m178-313c94 0 171 77 171 171v9h27v-151c0-16 13-29 29-29 16 0 29 13 29 29v151h12c16 0 29 13 29 29 0 16-13 29-29 29h-12v75c0 16-13 29-29 29-16 0-29-13-29-29v-75h-141c-16 0-29-13-29-29 0-16 13-29 29-29h55v-9c0-62-50-112-112-112-16 0-29-13-29-30 0-16 13-29 29-29z m-126 491l-89 210c-4 10-15 17-27 17-12 0-22-7-27-17l-89-210c-6-15 1-32 16-39 3-1 7-2 11-2 11 0 22 7 27 18l17 40h90l17-40c7-15 24-22 39-16 15 7 22 24 15 39z m-136 76l20 47 20-47h-40z" horiz-adv-x="1000" />

<glyph glyph-name="unlock" unicode="&#xe811;" d="M416 850c11-1 22-3 33-4 103-16 181-66 228-160 17-34 24-70 24-108-1-30 0-60-1-90 0-8 3-12 11-14a131 131 0 0 0 101-127c0-121-1-243 0-364 0-67-54-125-118-131a45 45 0 0 1-9-2h-558c-7 1-14 3-20 4-62 11-107 68-107 130 1 123 0 247 1 370 0 58 51 115 109 122a228 228 0 0 0 29 2q257 0 514 0c13 0 13 0 14 14 0 28-1 56 0 84 0 77-33 137-92 183-57 44-123 60-194 54-85-8-155-45-203-118a204 204 0 0 1-33-109c0-13-6-22-17-22s-17 9-17 22c3 89 45 157 116 207 47 34 100 51 158 55a75 75 0 0 1 11 2z m-11-964q138 0 275 0a97 97 0 0 1 98 97q0 182 0 363c0 53-43 98-97 98q-275 1-550 0c-53 0-97-45-97-98q0-182 0-364c0-52 44-96 97-96q137 0 274 0z m73 315c0-21 1-41 0-62-2-36-34-65-71-66-38 0-71 29-73 66-1 42-1 84 0 127 2 36 34 64 71 64 38 0 70-28 73-64 1-22 0-43 0-65z m-34 1c0 19 0 38 0 57a38 38 0 0 1-38 37c-20 0-38-17-38-37q0-57 0-114a38 38 0 0 1 76 0c0 19 0 38 0 57z" horiz-adv-x="812" />

<glyph glyph-name="user" unicode="&#xe812;" d="M510-150h-20c-4 1-9 2-14 2-27 4-54 5-80 11-87 18-164 58-230 117a490 490 0 0 0-121 167 480 480 0 0 0-41 150c-1 14-2 28-4 41q0 12 0 24a77 77 0 0 1 2 9c2 22 3 44 7 66 24 127 87 231 190 310a482 482 0 0 0 248 99c14 1 28 3 41 4h24c4-1 7-2 11-2 29-4 59-6 88-12 120-28 217-92 291-191a482 482 0 0 0 94-242c1-14 3-27 4-41v-24a101 101 0 0 1-2-10c-2-22-3-44-7-66-28-143-103-255-226-334a475 475 0 0 0-214-74c-14-1-27-3-41-4z m-204 661h0c0 14-1 28 0 42 1 59 28 102 80 128 25 12 51 18 78 20 42 4 83 3 124-10 66-20 108-73 107-145-1-27-1-55 0-82a32 32 0 0 1 4-15 71 71 0 0 0 11-39c0-21 0-41 0-62 0-24-11-42-30-55a36 36 0 0 1-11-13c-11-23-19-48-34-68-19-24-23-50-22-79 1-22 9-37 30-47 53-26 105-53 157-79 6-4 10-4 15 1 105 101 156 223 149 369-3 61-18 119-45 174-79 167-257 275-446 263a476 476 0 0 1-173-44c-183-86-290-287-260-486 15-102 59-189 131-262 18-18 18-18 39-6q69 37 137 74c15 9 23 21 23 39 0 15 0 30 0 44a28 28 0 0 1-5 15 359 359 0 0 0-49 102 33 33 0 0 1-7 12c-13 14-19 29-19 48 0 21-1 41 0 62 0 9 2 20 6 27 10 14 10 28 10 43-1 10 0 19 0 29z m474-532c-6 3-9 5-12 7-49 24-97 48-145 73-28 14-43 36-42 68 0 20-1 39 0 59a20 20 0 0 0 3 12c27 33 46 70 60 110a19 19 0 0 0 10 10c15 6 23 16 23 32 0 20 0 40 0 60 0 10-4 18-10 26a23 23 0 0 0-6 13c0 33 0 66 0 100 0 50-25 89-73 106-53 20-108 19-163 5-52-14-88-54-86-116 1-32 0-64 0-96a22 22 0 0 0-5-12c-7-8-11-16-10-26 0-20 0-39 0-59-1-13 4-22 14-30a21 21 0 0 0 7-10 324 324 0 0 1 53-111 34 34 0 0 0 6-17c0-17-1-34 0-51 1-33-14-57-43-73q-67-36-133-72c-3-2-6-4-10-7 95-70 200-102 316-94 90 7 171 38 246 93z" horiz-adv-x="1000" />

<glyph glyph-name="wrench" unicode="&#xe813;" d="M966 759l-61 60c-39 39-105 42-147 5l-105-91c-2-2-3-3-4-4l-103-172-66-22c-5-2-9-6-11-12-1-6 1-12 5-16l180-180c3-3 7-5 12-5 1 0 2 1 4 1 5 1 10 5 12 11l22 66 174 105c1 1 2 2 4 3l89 104c36 42 34 108-5 147z m-21-125l-87-101-177-107c-4-2-6-6-7-9l-16-46-40 40c0 0 0 0 0 0l-60 60c0 0 0 0 0 0l-41 41 46 15c4 1 7 4 9 7l105 175 104 90c28 25 74 23 101-4l60-60c26-27 28-72 3-101z m-27-465c-50 49-124 67-190 45l-360 361c21 66 4 139-46 189-52 53-131 69-200 42-5-2-9-7-11-12-1-6 1-12 5-16l108-108-72-72-108 108c-4 4-10 6-15 5-6-1-11-5-13-11-27-69-10-147 42-200 50-50 123-67 190-45l134-135-167-168-107-60c-3-1-6-4-7-7l-48-96c-3-6-2-14 3-19l60-60c3-4 8-5 12-5 3 0 5 0 8 1l96 48c3 2 5 4 7 7l60 107 167 168 142-142c-21-66-4-140 46-189 35-36 83-55 132-55 23 0 46 4 68 13 5 2 9 7 10 12 1 6 0 12-4 16l-108 107 72 73 108-108c4-4 9-6 15-5 6 1 10 5 12 10 27 70 11 148-41 201z m-645-79c-1-1-2-2-3-3l-58-105-81-40-42 43 40 80 104 59c2 0 3 1 4 2l169 170 36-36-169-170z m662-83l-99 100c-7 6-18 6-24 0l-96-96c-3-4-5-8-5-12 0-5 2-9 5-12l99-100c-49-10-101 5-137 42-43 43-57 107-35 163 3 7 1 14-3 19l-376 375c-3 3-8 5-12 5-2 0-4 0-6-1-57-22-121-9-164 34-36 37-52 89-42 138l100-100c7-6 17-6 24 0l96 96c7 7 7 18 0 24l-100 100c50 10 102-5 138-42 43-43 56-107 34-164-2-6-1-13 4-18l376-375c4-5 12-7 18-4 56 22 121 8 164-34 36-37 51-89 41-138z" horiz-adv-x="1000" />

<glyph glyph-name="balance" unicode="&#xe814;" d="M980 482h-13c-13 66-80 182-109 231 13 10 22 26 22 44 0 29-23 53-52 53-29 0-53-24-53-53 0-18 9-34 23-44-30-49-96-165-109-231h-14c-11 0-20-9-20-20 0-95 78-172 173-172 95 0 172 77 172 172 0 11-9 20-20 20z m-152 288c7 0 13-6 13-13 0-7-6-13-13-13-7 0-13 6-13 13 0 7 6 13 13 13z m0-84c33-57 85-152 98-204h-197c12 49 59 137 99 204z m0-356c-67 0-122 48-131 112h262c-10-64-65-112-131-112z m-151-325h-52v51c0 11-9 19-20 19h-51v557c13 13 22 30 23 50l84 18c11 2 17 13 15 24-2 10-13 17-24 15l-84-18c-13 24-38 40-67 40-40 0-73-31-75-71l-211-45c-10 13-25 22-43 22-29 0-52-24-52-53 0-18 9-34 23-44-30-49-97-165-110-231h-13c-11 0-20-9-20-20 0-95 77-172 172-172 95 0 173 77 173 172 0 11-9 20-20 20h-14c-13 66-79 182-109 231 12 8 20 21 23 36l209 45c4-7 8-13 14-19v-557h-51c-11 0-20-8-20-19v-51h-52c-11 0-20-9-20-20v-75c0-11 9-20 20-20h352c11 0 20 9 20 20v75c0 11-9 20-20 20z m-505 622c8 0 13-6 13-13 0-7-5-13-13-13-7 0-13 6-13 13 0 7 6 13 13 13z m0-441c-66 0-121 49-131 113h262c-9-64-64-113-131-113z m99 153h-197c12 49 59 137 98 203 34-56 86-151 99-203z m230 382c20 0 36-16 36-35 0-20-16-36-36-36-20 0-36 16-36 36 0 19 16 35 36 35z m13-110v-536h-26v536c4 0 9-1 13-1 5 0 9 1 13 1z m-97-575h168v-31h-168v31z m240-106h-312v35h312v-35z m96 809c-2 11-13 18-24 15l-14-3c-11-2-18-13-16-24 2-9 11-15 20-15 1 0 3 0 4 0l15 3c10 3 17 13 15 24z" horiz-adv-x="1000" />

<glyph glyph-name="book-(1)" unicode="&#xe815;" d="M981 649c0 0 0 0-1 0h-65v23c0 8-6 16-14 19-46 12-93 18-140 18-77 0-183-18-261-97-78 80-184 97-262 97-47 0-94-6-139-18-9-3-15-11-14-19v-23h-66c-10 0-19-8-19-19v-619c0-11 9-20 19-20 4 0 7 1 10 3 2 1 196 107 466 39h3 2c1-1 3-1 5 0 271 68 465-37 466-39 6-4 13-4 19 0 6 3 10 10 10 17v619c0 10-9 19-19 19z m-942-607v568h46v-486c0-11 9-19 19-19 1 0 2 0 3 0 41 6 81 9 122 9 56 1 112-7 165-25-120 15-243-1-355-47z m190 111c-36 0-71-2-106-7v510c38 9 76 13 115 13 73 0 173-17 242-95l1-483c-41 27-119 62-252 62z m290 421c70 78 170 95 242 95 39 0 77-4 115-13v-510c-35 5-70 7-105 7-132 0-211-35-252-62v483z m442-532c-113 46-235 62-356 47 54 18 110 27 166 25 41 0 82-3 122-9 11-2 21 6 22 16 0 1 1 2 1 3v486h46l-1-568z" horiz-adv-x="1000" />

<glyph glyph-name="calculator" unicode="&#xe816;" d="M843 850h-686c-27 0-49-22-49-49v-902c0-27 22-49 49-49h686c27 0 49 22 49 49v902c0 27-22 49-49 49z m15-951c0-9-6-16-15-16h-686c-8 0-15 7-15 16v902c0 9 7 16 15 16h686c9 0 15-7 15-16v-902z m-666 34h183v184h-183v-184z m33 150h117v-116h-117v116z m183-150h184v184h-184v-184z m34 150h116v-116h-116v116z m183-150h183v400h-183v-400z m33 367h117v-333h-117v333z m-466-150h183v183h-183v-183z m33 150h117v-117h-117v117z m183-150h184v183h-184v-183z m34 150h116v-117h-116v117z m-250 67h183v183h-183v-183z m33 150h117v-117h-117v117z m183-150h184v183h-184v-183z m34 150h116v-117h-116v117z m183-150h183v183h-183v-183z m33 150h117v-117h-117v117z m-466 83h616v167h-616v-167z m33 133h550v-100h-550v100z" horiz-adv-x="1000" />

<glyph glyph-name="car" unicode="&#xe817;" d="M962 449l-22 23-76 207c-14 35-47 58-84 58h-546c-38 0-71-23-84-58l-75-204-32-29c-27-23-43-57-43-93v-301c0-49 40-89 89-89h57c49 0 89 40 89 89v44h530v-44c0-49 40-89 89-89h57c49 0 89 40 89 89v309c0 33-14 65-38 88z m-772 215c7 18 24 30 44 30h546c19 0 37-12 44-30l66-179h-50c-11 80-86 135-166 123-64-9-114-59-124-123h-426l66 179z m607-179h-203c11 56 67 92 123 80 40-9 71-40 80-80z m-605-433c0-25-21-46-46-46h-57c-25 0-46 21-46 46v56c13-8 29-12 46-12h103v-44z m765 0c0-25-21-46-46-46h-57c-25 0-46 21-46 46v44h103c17 0 33 4 46 12v-56z m-46 87h-822c-25-1-46 20-46 45v169c0 23 10 46 28 61 0 0 1 0 1 1l29 27h809l21-22c0-1 1-1 1-1 16-15 25-36 25-58v-177h0c0-25-21-46-46-45z m-629 217h-160c-12 0-22-9-22-21v-111c0-12 10-21 22-21h160c12 0 21 9 21 21v111c0 12-9 21-21 21z m-21-111h-118v69h118v-69z m617 111h-160c-12 0-21-9-21-21v-111c0-12 9-21 21-21h160c12 0 22 9 22 21v111c0 12-10 21-22 21z m-21-111h-118v69h118v-69z m-254 22h-206c-12 0-22-10-22-22 0-11 10-21 22-21h206c12 0 22 10 22 21 0 12-10 22-22 22z m0 66h-206c-12 0-22-10-22-21 0-12 10-22 22-22h206c12 0 22 10 22 22 0 11-10 21-22 21z" horiz-adv-x="1000" />

<glyph glyph-name="cocktail" unicode="&#xe818;" d="M519 174c-11 0-20-8-20-19 0-11 9-20 20-20 10 0 19 9 19 20 0 11-9 19-19 19z m-67 17c-43 25-70 70-70 120 0 11-9 20-20 20-10 0-19-9-19-20 0-64 35-123 90-154 3-1 7-2 10-2 7 0 13 3 17 10 5 9 2 21-8 26z m380 659h-195c-10 0-18-7-19-16l-30-179h-11c-4 50-25 96-60 132-41 40-94 63-152 63 0 0 0 0-1 0 0 0 0 0 0 0 0 0 0 0 0 0 0 0 0 0-1 0-57 0-111-23-152-65-40-40-62-93-62-149 0 0 0-1 0-1 0 0-1 0-1 0 0 0 1 0 1 0-1-1-1-1-1-2 0-57 23-111 63-152 0 0 0 0 0 0 21-20 45-36 71-47-3-10-6-20-8-31-6-29-9-58-9-88 0-2 0-3 0-4 0-68 26-132 74-180 34-33 76-56 121-67v-175h-137c-10 0-19-9-19-20 0-10 9-19 19-19h391c11 0 19 9 19 19 0 11-8 20-19 20h-137v175c112 26 196 127 196 247v1c-1 27-3 57-7 85 0 0 0 1 0 2 0 3-1 6-2 8-4 20-8 38-13 54l-58 180c-2 8-10 14-18 14h-48l26 156h179c11 0 20 9 20 20 0 10-9 19-20 19z m-294-195h-125l89 89c20-26 33-56 36-89z m-154 155c33-4 65-17 91-38l-91-91v129z m-7-194h204l-32-198h-231c2 7 4 14 6 20 0 0 0 0 0 1l53 177z m-32 194v-131l-92 92c26 22 58 35 92 39z m-119-67l88-88h-125c4 32 16 63 37 88z m-38-127h131c-1-1-3-2-4-3l-89-89c-21 26-34 58-38 92z m66-120l66 66-27-90c-14 6-27 14-39 24z m284-607h-39v168h39v-168z m195 423v-1h0c0-118-96-215-214-215-58 0-112 22-152 63-41 41-63 95-63 152 0 1 0 2 0 3 0 23 2 44 5 65h256c0 0 0 0 0 0 0 0 0 0 0 0h164c3-22 4-46 4-67z m-72 304l53-167c3-9 5-19 8-31h-134l33 198h40z" horiz-adv-x="1000" />
</font>
</defs>
</svg>
